<?xml version="1.0" standalone="no"?>
<!DOCTYPE svg PUBLIC "-//W3C//DTD SVG 20010904//EN"
        "http://www.w3.org/TR/2001/REC-SVG-20010904/DTD/svg10.dtd">
<svg version="1.0" xmlns="http://www.w3.org/2000/svg"
     width="800.000000pt" height="800.000000pt" viewBox="0 0 800.000000 800.000000"
     preserveAspectRatio="xMidYMid meet">

    <g transform="translate(0.000000,800.000000) scale(0.100000,-0.100000)"
       fill="#000000" stroke="none">
        <path d="M0 4000 l0 -4000 4000 0 4000 0 0 4000 0 4000 -4000 0 -4000 0 0
-4000z m7627 3622 l-27 -28 -2 -3595 -3 -3594 -3594 -3 -3595 -2 -28 -27 -28
-27 0 3652 0 3652 3652 0 3652 0 -27 -28z"/>
        <path d="M720 4000 l0 -3280 3280 0 3280 0 0 3280 0 3280 -3280 0 -3280 0 0
-3280z m360 3095 l0 -175 -175 0 -175 0 0 175 0 175 175 0 175 0 0 -175z m370
0 l0 -175 -180 0 -179 0 0 155 c1 86 3 165 6 175 5 19 15 20 179 20 l174 0 0
-175z m360 0 l0 -175 -175 0 -175 0 0 175 0 175 175 0 175 0 0 -175z m365 0
l0 -175 -177 0 -178 0 0 175 0 175 178 0 177 0 0 -175z m365 0 l0 -175 -175 0
-175 0 0 175 0 175 175 0 175 0 0 -175z m360 0 l0 -175 -175 0 -175 0 0 175 0
175 175 0 175 0 0 -175z m370 0 l0 -175 -180 0 -180 0 0 175 0 175 180 0 180
0 0 -175z m360 0 l0 -175 -175 0 -175 0 0 175 0 175 175 0 175 0 0 -175z m360
15 c0 -100 4 -160 10 -160 6 0 10 60 10 160 l0 160 175 0 175 0 0 -175 0 -175
-174 0 c-130 0 -176 3 -180 13 -5 10 -7 10 -12 0 -4 -10 -50 -13 -180 -13
l-174 0 0 175 0 175 175 0 175 0 0 -160z m730 -15 l0 -175 -175 0 -175 0 0
175 0 175 175 0 175 0 0 -175z m370 0 l0 -175 -180 0 -180 0 0 175 0 175 180
0 180 0 0 -175z m360 0 l0 -175 -175 0 -175 0 0 175 0 175 175 0 175 0 0 -175z
m360 0 l0 -175 -175 0 -175 0 0 175 0 175 175 0 175 0 0 -175z m370 0 l0 -175
-180 0 -179 0 0 175 1 175 179 0 179 0 0 -175z m360 0 l0 -175 -175 0 -175 0
0 175 0 175 175 0 175 0 0 -175z m363 155 c3 -10 5 -89 6 -175 l0 -155 -179 0
-180 0 0 175 0 175 174 0 c164 0 174 -1 179 -20z m367 -155 l0 -175 -175 0
-175 0 0 175 0 175 175 0 175 0 0 -175z m-6190 -367 l0 -178 -175 0 -175 0 0
174 c0 156 2 175 17 178 9 2 88 3 175 3 l158 0 0 -177z m365 1 l0 -174 -175 0
-175 0 -2 170 c-1 93 0 172 2 175 2 3 81 5 177 4 l173 -1 0 -174z m363 -3 l2
-176 -175 0 -175 0 0 178 0 177 172 -2 173 -1 3 -176z m364 2 l1 -173 -174 0
-174 0 -3 165 c-1 90 -1 169 1 175 3 6 65 9 176 8 l171 -2 2 -173z m366 -2 l2
-176 -175 0 -175 0 0 178 0 177 172 -1 173 -2 3 -176z m360 0 l2 -176 -175 0
-175 0 0 173 c0 96 2 176 4 178 2 2 80 3 173 2 l168 -2 3 -175z m367 3 l0
-174 -175 0 -175 0 -3 165 c-1 90 -1 169 1 175 3 6 66 10 178 9 l174 -1 0
-174z m365 1 l0 -180 -175 0 -175 0 0 175 0 175 163 3 c89 1 168 4 175 5 9 1
12 -39 12 -178z m728 -4 l2 -176 -175 0 -175 0 0 170 c0 107 -4 170 -10 170
-6 0 -10 -63 -10 -170 l0 -170 -175 0 -175 0 0 173 c0 96 2 176 4 178 2 2 163
3 358 3 l353 -2 3 -176z m208 174 l154 0 0 -175 0 -175 -175 0 -175 0 0 173
c0 96 3 177 7 181 4 3 13 4 21 1 7 -3 83 -5 168 -5z m519 -171 l0 -174 -175 0
-175 0 -3 165 c-1 90 -1 169 1 175 3 6 66 9 178 9 l174 -2 0 -173z m363 -3 l2
-176 -175 0 -175 0 0 173 c0 96 2 176 4 178 2 2 80 3 173 2 l168 -2 3 -175z
m362 2 l0 -178 -175 0 -175 0 0 173 c0 96 2 176 4 178 2 2 81 4 175 4 l171 0
0 -177z m365 0 l0 -173 -175 0 -175 0 -2 169 c-1 93 -1 172 1 175 2 3 82 5
178 4 l173 -2 0 -173z m365 0 l0 -178 -175 0 -175 0 0 173 c0 96 2 176 4 178
2 2 81 4 175 4 l171 0 0 -177z m365 0 l0 -173 -175 0 -175 0 -3 165 c-1 90 -1
169 1 175 3 6 65 9 178 8 l174 -3 0 -172z m353 172 c9 0 12 -42 12 -175 l0
-175 -175 0 -175 0 0 178 0 177 162 -2 c90 -1 169 -2 176 -3z m-6178 -530 c0
-93 3 -170 8 -170 4 0 6 76 5 170 l-2 170 180 0 179 0 0 -175 0 -175 -360 0
-360 0 0 175 0 175 175 0 175 0 0 -170z m730 -5 l0 -175 -175 0 -175 0 0 175
0 175 175 0 175 0 0 -175z m365 0 l0 -175 -177 0 -178 0 0 175 0 175 178 0
177 0 0 -175z m365 0 l0 -175 -175 0 -175 0 0 175 0 175 175 0 175 0 0 -175z
m360 0 l0 -175 -175 0 -175 0 0 175 0 175 175 0 175 0 0 -175z m370 0 l0 -175
-180 0 -179 0 0 175 0 175 180 0 179 0 0 -175z m360 0 l0 -175 -175 0 -175 0
0 175 0 175 175 0 175 0 0 -175z m730 0 l0 -175 -360 0 -360 0 0 175 0 175
360 0 360 0 0 -175z m360 0 l0 -175 -175 0 -175 0 0 175 0 175 175 0 175 0 0
-175z m369 0 l0 -175 -179 0 -180 0 0 175 0 175 179 0 180 0 0 -175z m361 0
l0 -175 -175 0 -175 0 0 175 0 175 175 0 175 0 0 -175z m360 0 l0 -175 -175 0
-175 0 0 175 0 175 175 0 175 0 0 -175z m370 0 l0 -175 -180 0 -180 0 2 175 1
175 179 0 178 0 0 -175z m360 0 l0 -175 -175 0 -175 0 0 175 0 175 175 0 175
0 0 -175z m367 5 c-1 -93 1 -170 6 -170 4 0 7 77 7 170 l0 170 175 0 175 0 0
-175 0 -175 -360 0 -360 0 0 175 0 175 179 0 179 0 -1 -170z m-5827 -371 c0
-117 -3 -178 -10 -174 -5 3 -10 1 -10 -4 0 -6 5 -11 10 -11 6 0 10 -65 10
-175 l0 -175 -175 0 -175 0 0 175 0 175 160 0 c88 0 160 3 160 8 0 4 -72 7
-160 6 l-160 0 0 178 0 178 175 0 175 0 0 -181z m365 1 l0 -175 -175 0 -175 0
-3 165 c-1 90 0 170 3 177 3 11 42 13 177 11 l173 -3 0 -175z m367 88 l2 -93
3 93 4 92 175 -2 176 -3 2 -77 c2 -106 16 -111 16 -5 l0 87 175 0 175 0 2 -92
2 -93 3 93 4 92 174 0 175 0 2 -92 2 -93 5 90 6 90 175 0 175 0 6 -90 5 -90 2
93 2 92 175 0 175 0 0 -179 0 -180 -90 4 c-88 3 -90 3 -86 -19 8 -44 -50 -127
-107 -153 -39 -18 -122 -16 -159 3 -17 9 -27 11 -23 4 4 -6 16 -15 27 -19 18
-6 16 -10 -19 -33 -21 -14 -47 -42 -58 -62 -22 -41 -31 -45 -40 -17 -3 11 -19
34 -35 51 l-29 31 44 46 c50 53 59 75 38 100 -8 10 -12 13 -9 6 4 -6 2 -14 -3
-18 -6 -3 -20 -19 -32 -36 l-22 -31 24 6 c20 6 21 5 6 -4 -9 -6 -21 -8 -26 -5
-10 6 -74 -29 -67 -36 8 -7 -129 6 -144 14 -8 5 -6 1 5 -8 14 -13 16 -19 7
-22 -27 -10 -70 -54 -87 -89 l-17 -37 -13 29 c-7 16 -30 46 -51 68 -21 21 -34
36 -27 32 6 -3 14 -2 17 3 4 5 1 11 -6 14 -7 2 -4 3 8 1 38 -6 89 68 78 112
-6 25 -7 25 -24 -14 -10 -21 -25 -42 -34 -45 -9 -4 -16 -12 -16 -19 0 -33
-148 -50 -200 -23 -17 9 -30 13 -30 11 0 -3 12 -12 27 -19 l27 -14 -37 -24
c-20 -13 -47 -43 -60 -67 l-24 -43 -13 31 c-7 17 -30 46 -52 64 -36 31 -37 34
-21 47 16 13 17 12 4 -3 -17 -22 -8 -23 25 -2 18 12 23 22 19 38 -5 15 -4 17
3 7 5 -7 14 -11 20 -7 17 10 30 60 21 81 -8 19 -8 19 -15 -2 -3 -13 -11 -20
-17 -16 -6 4 -8 -2 -5 -15 3 -12 3 -20 -1 -19 -10 3 -81 -47 -81 -58 0 -11
-120 -4 -155 9 -18 7 -18 6 -2 -4 24 -15 22 -23 -13 -43 -17 -10 -40 -36 -53
-58 -25 -44 -33 -48 -42 -19 -4 12 -22 36 -40 55 l-34 33 34 24 c19 12 35 28
35 34 0 7 7 14 15 18 17 6 21 61 5 71 -5 3 -10 1 -10 -6 0 -7 -11 -27 -26 -46
-14 -18 -22 -39 -18 -46 5 -9 4 -9 -5 -1 -13 12 -61 -3 -61 -18 0 -12 -104
-10 -137 2 -26 9 -27 9 -9 -5 11 -8 18 -16 15 -18 -2 -2 -17 -11 -32 -21 -16
-9 -41 -38 -57 -63 -25 -38 -28 -54 -27 -108 1 -35 -1 -58 -5 -52 -5 8 -8 6
-8 -4 0 -15 -24 -40 -86 -89 -23 -18 -127 -19 -164 -1 l-25 12 22 -17 23 -16
-40 -29 c-52 -38 -80 -94 -80 -162 0 -52 2 -56 58 -115 l57 -62 -35 -22 c-19
-13 -44 -40 -55 -61 -20 -37 -35 -48 -35 -24 0 7 -14 30 -32 51 -30 36 -47 73
-29 61 13 -7 50 24 67 57 15 29 13 58 -5 58 -10 0 -24 -38 -22 -60 1 -11 0
-12 -7 -2 -6 9 -13 8 -28 -6 -44 -40 -145 -56 -197 -31 -22 10 -22 10 -2 -7
15 -12 17 -18 7 -21 -36 -14 -83 -68 -96 -112 l-13 -46 -87 -3 -86 -3 0 175 0
175 33 6 c17 3 59 6 92 8 42 2 33 4 -32 5 l-93 2 0 175 0 175 175 0 175 0 0
-85 c0 -47 3 -85 8 -85 4 0 7 37 7 83 l0 82 90 6 90 5 -92 2 -91 2 0 175 0
175 179 0 179 0 2 -87 2 -88 3 88 4 87 86 0 c48 0 83 3 80 6 -4 4 -43 7 -87 7
l-80 0 0 178 0 179 175 0 175 0 2 -92z m2178 -87 l0 -179 -172 2 -173 1 -3
178 -2 177 175 0 175 0 0 -179z m370 0 l0 -180 -175 1 -175 1 0 178 0 179 175
0 175 0 0 -179z m360 0 l0 -180 -175 0 -175 1 0 179 0 179 175 0 175 0 0 -179z
m371 84 l5 -90 2 93 2 92 175 0 175 0 2 -92 2 -93 3 93 4 92 174 0 175 0 0
-87 c0 -47 3 -83 7 -79 4 4 7 42 8 84 l0 77 178 3 177 2 2 -92 2 -93 3 93 4
92 174 0 175 0 0 -178 0 -177 -72 0 c-40 0 -80 3 -88 5 -10 4 -15 -3 -16 -20
-1 -14 -3 -28 -4 -32 -1 -5 -3 -11 -4 -15 -9 -40 -18 -62 -24 -61 -11 4 -55
-29 -45 -34 4 -3 2 -3 -5 -1 -8 1 -23 -4 -35 -12 -28 -20 -109 -19 -150 1
l-32 15 25 -20 c25 -20 25 -20 5 -35 -11 -9 -23 -16 -28 -16 -4 0 -20 -20 -36
-45 l-29 -46 -20 33 c-12 18 -32 44 -46 57 l-26 24 30 15 c17 8 28 17 26 19
-3 3 6 16 20 30 24 24 31 57 15 81 -6 11 -10 8 -14 -10 -6 -24 -57 -99 -57
-83 0 4 -9 0 -19 -9 -11 -10 -25 -15 -32 -10 -8 5 -10 3 -4 -5 6 -10 -7 -12
-56 -9 -35 2 -73 8 -84 12 -19 7 -19 7 -3 -7 16 -13 15 -16 -22 -46 -22 -18
-47 -46 -56 -63 l-16 -30 -20 33 c-11 19 -34 47 -51 62 -18 16 -27 26 -20 23
16 -8 78 47 92 82 8 18 9 37 3 53 -9 24 -9 24 -16 -8 -4 -18 -4 -38 0 -45 6
-10 5 -10 -7 -1 -12 10 -18 8 -30 -8 -17 -26 -64 -51 -75 -41 -5 4 -3 0 3 -8
10 -13 2 -14 -61 -10 -40 3 -79 10 -87 15 -8 6 -7 3 3 -6 16 -16 15 -18 -21
-42 -21 -14 -47 -44 -58 -66 -20 -39 -20 -40 -31 -17 -6 13 -24 39 -41 58
l-30 34 35 27 c19 16 34 34 34 42 0 8 4 15 9 15 5 0 11 6 14 14 7 18 -3 56
-15 56 -5 0 -7 -4 -3 -9 3 -5 0 -13 -6 -16 -5 -4 -8 -14 -5 -22 3 -8 2 -12 -3
-9 -4 3 -19 -6 -32 -20 -13 -14 -37 -32 -54 -39 -18 -8 -23 -14 -13 -14 9 -1
19 -5 23 -11 3 -6 -5 -6 -22 0 -36 11 -157 19 -141 9 7 -4 10 -10 8 -12 -3 -2
-19 -13 -37 -25 -38 -27 -73 -96 -73 -146 0 -35 -24 -93 -52 -126 -38 -45
-163 -69 -218 -42 -25 13 -25 13 -4 -5 21 -18 21 -18 -17 -45 -52 -37 -79 -93
-79 -161 0 -36 -5 -59 -15 -67 -8 -7 -15 -18 -15 -24 -1 -12 -35 -39 -77 -61
l-25 -13 21 -12 c31 -16 81 14 106 66 l20 40 54 -55 c29 -30 48 -57 42 -59
-26 -9 -73 -57 -91 -93 -12 -23 -20 -58 -20 -88 0 -64 -31 -106 -112 -152
l-28 -17 36 -6 c36 -7 69 7 58 25 -3 5 1 6 8 4 15 -6 52 50 43 64 -3 5 -1 12
4 15 5 3 21 -13 37 -36 16 -22 41 -46 56 -53 l28 -11 -45 -32 c-58 -41 -83
-91 -87 -174 -1 -37 -6 -64 -10 -62 -5 3 -8 -6 -8 -19 0 -13 -9 -32 -20 -42
-24 -22 -27 -13 -4 10 30 30 7 26 -26 -5 -18 -16 -40 -30 -49 -30 -11 -1 -8
-5 9 -14 22 -12 28 -12 53 2 15 9 39 34 54 55 l27 38 32 -35 c18 -19 44 -38
59 -42 l27 -7 -33 -21 c-68 -42 -109 -106 -109 -167 0 -22 -5 -50 -11 -61 -8
-15 -8 -22 1 -28 8 -5 4 -9 -10 -13 -21 -5 -22 -7 -5 -23 14 -15 18 -15 26 -3
5 8 8 25 5 39 -3 20 4 15 41 -28 25 -29 51 -52 58 -52 25 0 27 -20 3 -29 -61
-24 -110 -110 -106 -184 3 -50 1 -54 -40 -92 -23 -22 -56 -47 -73 -56 l-29
-17 36 -7 c32 -6 41 -3 71 27 18 18 36 43 39 55 8 31 15 29 47 -16 17 -26 38
-42 58 -46 l30 -7 -45 -28 c-26 -17 -56 -48 -71 -75 -24 -39 -27 -54 -23 -105
2 -33 1 -55 -3 -49 -9 15 -21 -5 -13 -24 3 -8 0 -18 -7 -23 -8 -5 -10 -3 -4 7
5 8 -10 -3 -33 -23 -23 -21 -52 -38 -65 -38 -19 -1 -18 -3 8 -14 40 -18 76 0
111 56 l27 42 22 -28 c12 -16 34 -38 49 -51 l26 -22 -37 -25 c-53 -35 -83 -96
-83 -167 0 -51 -4 -62 -30 -89 -64 -67 -141 -91 -212 -66 -53 18 -47 9 12 -21
l50 -25 0 -70 0 -70 -265 0 c-205 0 -265 3 -265 13 0 9 -3 8 -9 -2 -5 -7 -6
-21 -4 -31 6 -24 -37 -111 -50 -103 -6 4 -8 0 -5 -9 4 -8 1 -15 -5 -15 -7 -1
-29 -10 -49 -21 l-38 -20 35 -6 c27 -5 41 -2 66 16 39 29 62 72 53 100 -4 14
-3 18 6 13 8 -5 11 1 8 21 l-3 29 78 3 77 3 0 -156 c0 -97 4 -155 10 -155 6 0
10 58 10 155 l0 155 175 0 175 0 0 -175 0 -176 -269 3 -269 3 -6 -40 c-3 -22
-6 -51 -6 -65 0 -16 -3 -20 -8 -13 -5 9 -16 3 -37 -19 -16 -17 -47 -39 -69
-49 -30 -13 -35 -18 -20 -22 16 -4 15 -5 -3 -6 -13 0 -23 4 -23 9 0 6 -16 10
-36 10 -19 0 -45 5 -57 12 -20 10 -21 10 -8 -5 7 -10 28 -21 45 -25 31 -8 31
-8 34 -85 l3 -77 -176 0 -175 0 0 74 0 75 43 3 c23 2 42 8 42 15 0 6 4 15 9
20 5 5 6 3 2 -4 -10 -18 5 -16 32 3 28 19 52 65 52 99 0 25 -1 25 -32 -16 -44
-57 -77 -79 -125 -86 l-40 -5 1 -87 1 -86 -175 0 -175 0 -2 235 c-2 129 -1
244 2 255 3 15 13 20 40 22 46 2 94 30 122 71 19 29 21 42 16 110 -7 88 -21
124 -72 170 -20 18 -29 31 -21 28 18 -7 26 -2 68 48 27 30 32 44 27 65 -5 21
0 17 26 -19 56 -78 64 -83 135 -81 35 1 73 -3 84 -9 26 -14 65 4 94 43 18 25
21 40 18 119 -3 100 -13 123 -70 174 -21 18 -32 35 -28 42 4 7 12 10 17 6 5
-3 6 -10 3 -16 -4 -6 -1 -8 7 -6 8 3 13 10 12 16 -2 7 4 9 13 5 12 -4 15 -2
12 8 -3 8 -12 13 -19 11 -9 -2 -7 4 5 17 11 12 22 19 25 16 3 -4 -1 -10 -8
-14 -10 -6 -10 -10 -1 -16 13 -8 13 -9 34 32 9 17 14 38 11 45 -2 7 -6 39 -9
71 -3 33 -14 72 -25 91 -24 39 -78 86 -100 87 -10 0 -6 4 7 10 26 10 46 3 37
-12 -14 -21 14 -6 42 24 38 40 56 74 47 89 -4 6 -6 33 -5 61 2 59 -29 119 -86
166 -20 17 -34 33 -30 37 4 4 13 1 22 -6 12 -10 20 -9 40 4 37 24 61 64 46 79
-16 16 -13 32 4 17 9 -8 15 -9 15 -2 0 6 -4 13 -8 16 -5 3 -9 32 -10 66 -1 71
-21 109 -79 155 -33 26 -46 30 -103 30 -36 0 -72 4 -80 9 -12 7 -13 6 -3 -4
10 -11 5 -20 -26 -46 -21 -18 -44 -47 -51 -64 -13 -31 -30 -40 -30 -16 0 8
-21 37 -46 65 -25 28 -40 49 -32 46 36 -14 103 75 92 121 l-7 26 -13 -31 c-16
-39 -28 -51 -79 -83 -50 -30 -132 -36 -173 -12 l-27 16 24 -19 23 -20 -35 -21
c-21 -12 -45 -39 -58 -63 l-21 -43 -19 36 c-10 20 -30 45 -44 56 -23 19 -34
43 -17 41 20 -3 25 2 12 12 -12 9 -12 10 4 5 22 -8 61 28 50 46 -4 6 -3 8 4 4
15 -9 24 27 14 55 l-9 24 -8 -25 c-10 -32 -79 -100 -102 -100 -12 0 -14 -3 -6
-8 20 -13 -121 -7 -147 6 l-25 13 23 -20 22 -19 -35 -22 c-98 -61 -103 -213
-10 -300 24 -23 35 -25 110 -25 46 0 78 -3 72 -7 -8 -5 -6 -8 6 -8 9 0 17 4
17 8 0 5 7 17 16 28 15 18 15 18 9 -9 -5 -26 -4 -27 15 -15 11 7 21 20 21 28
1 8 3 22 3 30 1 8 5 25 9 38 8 21 11 19 53 -33 49 -59 57 -63 151 -67 48 -2
64 0 69 12 5 11 8 9 16 -10 6 -15 12 -20 15 -12 3 6 8 10 13 7 4 -3 7 9 6 26
0 18 4 34 11 36 7 3 9 -3 6 -16 -9 -33 11 -24 27 12 7 17 16 36 18 41 3 5 -2
6 -11 3 -11 -4 -14 -2 -10 9 8 21 17 17 36 -13 27 -45 77 -94 87 -88 6 3 10 2
10 -3 0 -5 -18 -21 -40 -36 -50 -33 -70 -72 -80 -154 -10 -74 -28 -104 -88
-145 -46 -31 -115 -43 -158 -27 -23 9 -25 9 -15 -4 7 -8 26 -18 42 -21 29 -7
29 -7 29 -81 l0 -74 -175 0 -175 0 0 69 0 69 45 6 c25 4 45 12 45 18 0 6 3 9
6 5 9 -8 75 54 85 80 5 13 5 33 0 45 l-8 23 -8 -25 c-16 -53 -133 -135 -164
-116 -5 4 -12 2 -16 -3 -3 -6 -24 -2 -51 9 -25 11 -42 15 -38 9 4 -6 26 -20
50 -31 l44 -19 0 -69 0 -70 -175 0 -175 0 0 175 0 175 88 2 87 2 -87 3 -88 4
0 359 0 360 88 2 87 2 -87 3 -88 4 0 174 0 175 175 0 175 0 2 -87 2 -88 3 88
4 87 174 0 175 0 2 -87 2 -88 3 88 4 87 179 0 180 0 2 -87 2 -88 3 88 4 87
174 0 175 0 2 -87 2 -88 3 88 4 87 174 0 175 0 0 -170 c0 -107 4 -170 10 -170
6 0 10 63 10 170 l0 170 87 0 c47 0 84 2 81 5 -3 3 -124 7 -269 8 l-264 2 0
175 0 175 263 1 c144 1 265 4 269 8 3 3 -116 6 -265 6 l-272 0 0 69 0 68 41 7
c22 4 52 14 67 23 25 17 71 62 73 73 0 3 3 14 6 25 2 11 7 35 10 53 l5 32 74
0 74 0 0 -170 c0 -107 4 -170 10 -170 6 0 10 63 10 170 l0 170 175 0 175 0 2
-87 2 -88 3 88 4 87 87 2 87 2 -87 3 -88 4 0 174 0 175 175 0 175 0 2 -87 2
-88 3 88 4 87 91 0 c113 0 111 10 -3 13 l-84 2 -3 165 c-1 90 0 170 3 177 3
11 42 13 177 11 l173 -3 6 -90z m1814 -85 l0 -175 -175 0 -175 0 -3 165 c-1
90 0 170 3 177 3 11 42 13 177 11 l173 -3 0 -175z m365 2 l0 -178 -160 0 c-88
1 -160 -2 -160 -6 0 -5 72 -8 160 -8 l160 0 0 -175 0 -175 -175 0 -175 0 0
175 c0 110 4 175 10 175 6 0 10 5 10 11 0 5 -4 7 -10 4 -7 -4 -10 57 -10 174
l0 181 175 0 175 0 0 -178z m-3638 -279 l2 -88 3 88 4 87 359 0 360 0 0 -175
0 -175 -175 0 c-149 0 -175 2 -175 15 0 8 -4 15 -10 15 -5 0 -10 -7 -10 -15 0
-12 -15 -15 -75 -15 -63 0 -77 3 -83 18 -6 15 -12 -8 -24 -109 -1 -9 -8 -15
-15 -12 -7 3 -15 -6 -19 -21 -3 -14 -9 -25 -13 -24 -3 1 -25 -8 -48 -20 -47
-24 -130 -26 -158 -2 -9 7 -15 8 -15 2 0 -6 20 -20 45 -32 l45 -22 0 -70 0
-69 -87 2 -88 2 0 -46 c0 -25 -3 -43 -6 -41 -9 5 -44 -48 -41 -60 2 -5 -4 -6
-13 -3 -8 4 -15 3 -15 -1 0 -14 -57 -41 -96 -46 -21 -2 -54 2 -72 10 -44 18
-30 -1 19 -27 l40 -20 -3 -67 -3 -67 -175 0 -175 0 -3 53 c-5 81 2 99 36 94
37 -5 81 17 121 63 31 36 42 87 21 100 -5 3 -10 -2 -10 -13 0 -10 -9 -28 -20
-40 -12 -12 -17 -22 -13 -22 4 0 -15 -14 -44 -30 -56 -32 -134 -41 -175 -19
-11 6 -18 7 -15 2 3 -5 24 -18 47 -28 l40 -18 0 -74 0 -73 -175 0 -175 0 0 75
0 75 29 0 c83 0 171 83 155 146 l-7 26 -13 -28 c-19 -42 -46 -70 -91 -94 -45
-23 -118 -29 -151 -11 -12 6 -22 10 -22 8 0 -8 52 -39 69 -41 13 -2 17 -18 19
-79 l3 -77 -176 0 -175 0 0 75 0 75 30 0 c57 0 110 37 146 103 11 21 12 32 3
49 -11 21 -12 20 -26 -13 -32 -76 -97 -113 -185 -107 -32 2 -58 3 -58 1 0 -7
60 -33 60 -26 0 5 4 2 9 -6 5 -7 8 -43 7 -80 l-2 -66 -74 -3 c-59 -2 -77 0
-86 13 -11 15 -12 11 -26 -102 -1 -7 -4 -10 -8 -8 -4 2 -23 -14 -43 -35 -20
-22 -43 -40 -52 -40 -23 0 -18 -17 7 -23 48 -13 114 59 124 133 l7 50 73 0 74
0 1 -157 c0 -87 2 -166 4 -175 3 -16 -6 -18 -80 -18 -57 0 -85 4 -89 13 -3 6
-5 1 -4 -13 2 -32 -19 -95 -37 -110 -8 -7 -12 -17 -8 -24 3 -6 2 -8 -2 -3 -5
4 -16 1 -24 -7 -9 -8 -29 -21 -44 -29 l-28 -15 31 -10 c29 -10 33 -9 70 28 37
37 60 89 60 138 0 22 3 23 75 20 l76 -3 2 -172 2 -172 -74 -3 c-52 -2 -79 1
-88 10 -11 11 -13 10 -13 -7 0 -20 6 -21 88 -21 l87 0 -3 -172 -2 -173 -72 -3
c-60 -2 -75 0 -85 15 -12 15 -13 10 -10 -34 1 -28 0 -50 -4 -48 -6 5 -34 -45
-31 -57 1 -4 -8 -10 -19 -13 -11 -4 -18 -13 -15 -20 3 -8 -2 -11 -12 -8 -9 2
-26 -3 -37 -11 -20 -14 -19 -15 7 -21 31 -8 88 26 88 51 0 8 4 13 9 9 11 -6
33 55 31 82 -5 41 -2 43 79 43 70 0 79 -2 76 -17 -2 -10 -4 -89 -4 -175 l-1
-158 -79 0 c-67 0 -80 3 -84 18 -3 11 -5 9 -6 -8 -1 -25 -1 -26 87 -25 l87 0
-3 -82 c-2 -54 1 -83 7 -83 7 0 11 32 11 85 l0 85 175 0 175 0 2 -92 2 -93 3
93 4 92 174 0 175 0 2 -87 2 -88 5 85 6 85 85 3 86 3 12 -46 c13 -50 86 -139
106 -129 6 4 -11 -13 -38 -37 -55 -49 -76 -90 -76 -151 0 -56 -27 -105 -79
-146 -37 -28 -50 -32 -102 -32 -33 0 -70 5 -82 11 -20 9 -20 9 -5 -4 16 -13
14 -16 -23 -47 -23 -18 -48 -49 -56 -69 l-15 -36 -18 35 c-10 19 -29 45 -43
58 l-24 23 39 39 c25 24 37 43 32 51 -4 7 -3 10 3 6 15 -9 24 19 17 50 l-7 25
-12 -28 c-14 -31 -68 -95 -82 -96 -4 0 -19 -5 -33 -10 -27 -10 -112 -7 -145 6
-14 5 -12 3 4 -7 l23 -14 -33 -24 c-43 -30 -67 -58 -75 -86 -6 -21 -8 -21 -31
15 -13 20 -38 49 -55 63 -17 14 -24 26 -17 26 46 0 114 88 99 128 -6 17 -8 16
-14 -8 -3 -15 -11 -25 -15 -22 -5 3 -7 -3 -4 -14 3 -10 0 -22 -6 -25 -7 -5 -8
-1 -4 9 4 11 -11 5 -39 -17 -25 -18 -44 -36 -42 -39 2 -3 -9 -4 -24 -3 -91 10
-123 11 -113 5 7 -5 -2 -16 -26 -32 -21 -13 -47 -41 -58 -62 -23 -42 -31 -46
-40 -16 -4 11 -25 38 -46 59 -22 21 -33 37 -27 36 7 0 13 4 13 9 0 11 -9 11
-40 1 -11 -4 -3 2 17 13 20 12 40 25 43 31 8 13 25 13 25 -1 0 -5 -3 -8 -7 -6
-5 3 -14 -1 -20 -9 -17 -18 3 -30 23 -13 33 27 42 62 37 144 -6 84 -20 120
-67 164 l-26 24 22 11 c31 16 76 84 84 129 7 42 -10 52 -20 12 -4 -14 -22 -43
-42 -64 -23 -26 -31 -42 -23 -46 6 -4 15 -1 20 6 6 9 9 10 9 2 0 -19 -20 -26
-37 -11 -12 10 -17 10 -20 1 -2 -7 -11 -9 -19 -6 -8 3 -14 1 -14 -4 0 -17 -98
-14 -133 2 -32 16 -32 16 -9 -3 l24 -18 -36 -25 c-20 -13 -46 -43 -58 -65
l-22 -42 -19 39 c-11 22 -33 49 -49 61 l-30 21 30 13 c17 7 41 29 55 48 22 33
24 44 19 109 -5 83 -20 117 -71 170 -23 25 -29 36 -17 31 13 -5 17 -4 12 4 -4
8 -2 10 7 6 14 -5 64 52 54 62 -2 2 -12 -7 -21 -21 -9 -14 -21 -23 -27 -19 -5
3 -16 0 -24 -6 -8 -7 -15 -10 -15 -7 0 9 94 72 100 67 3 -3 7 6 8 19 2 13 0
21 -5 18 -5 -3 -7 20 -5 54 4 52 1 64 -23 102 -16 23 -37 48 -47 55 -10 7 -16
17 -13 22 3 4 0 10 -7 12 -7 3 -5 7 6 11 11 4 15 3 10 -4 -4 -7 -1 -10 7 -7 8
3 14 17 15 32 1 15 9 35 19 44 18 16 18 16 2 -9 -17 -29 -12 -46 7 -26 26 26
34 50 25 81 -5 17 -9 53 -9 80 0 50 -28 102 -73 135 -18 13 -17 14 11 28 17 8
43 32 58 54 23 34 25 43 16 65 -7 14 -12 49 -12 78 0 43 -6 61 -29 94 -16 22
-34 43 -40 46 -6 4 7 22 29 42 42 38 63 83 49 105 -5 8 -9 38 -9 67 0 62 -9
83 -58 135 -32 33 -34 37 -15 37 23 0 83 62 83 85 0 23 7 19 59 -33 l48 -48
74 6 c42 4 80 9 85 13 6 3 11 0 11 -7 0 -8 -8 -12 -21 -9 -18 4 -19 3 -4 -6
19 -13 51 -4 41 12 -4 6 -1 7 6 3 13 -9 40 20 41 42 0 10 -3 10 -14 0 -8 -7
-12 -16 -9 -20 2 -5 -1 -8 -6 -8 -16 0 -13 15 7 33 15 13 21 14 31 4 10 -9 11
-8 5 7 -5 13 -4 17 4 12 8 -5 12 0 12 14 0 12 -3 19 -7 17 -5 -3 -6 19 -5 49
5 76 -2 98 -50 150 -26 29 -35 44 -25 44 18 0 87 77 87 98 0 8 21 -8 48 -35
l47 -51 97 -4 97 -5 31 32 c21 22 29 37 24 51 -5 16 -4 16 5 4 9 -13 11 -12
11 5 0 16 11 9 49 -32 l48 -53 69 0 c38 0 76 -4 83 -9 9 -6 22 -6 34 0 15 9
16 13 5 27 -12 15 -11 16 5 3 21 -16 40 -4 63 41 12 23 13 33 3 44 -8 10 -8
14 0 14 6 0 11 -4 11 -9 0 -5 21 -32 46 -60 l46 -51 65 0 c35 0 74 5 85 11 16
8 19 8 13 -1 -5 -9 -1 -10 16 -5 18 5 21 4 9 -4 -8 -6 -24 -8 -35 -5 -19 5
-19 4 -2 -6 14 -9 24 -8 43 5 14 9 22 21 18 27 -4 6 -3 8 3 5 13 -8 38 20 48
52 7 22 9 21 52 -28 l45 -51 72 0 c43 0 78 5 86 13 12 10 12 9 1 -5 -12 -16
-11 -18 12 -18 26 0 52 22 40 34 -4 4 -1 4 8 1 10 -4 22 7 37 34 18 31 20 44
12 66 -5 14 -10 46 -10 71 0 56 -18 91 -67 134 -21 19 -31 31 -22 28 19 -8 62
19 54 33 -4 5 1 9 9 9 19 0 48 64 49 108 l0 32 79 0 78 0 2 -87z m2910 0 l2
-88 3 88 4 87 178 0 179 0 0 -175 0 -175 -84 0 c-72 0 -84 2 -84 17 0 34 -10
4 -14 -40 -6 -89 -89 -163 -177 -158 -36 2 -56 -3 -87 -23 -43 -27 -77 -66
-88 -98 -5 -18 -9 -15 -34 22 -33 50 -76 90 -99 91 -10 0 -7 4 7 10 26 10 46
3 37 -12 -13 -19 14 -8 40 18 41 41 58 79 45 102 -5 11 -10 44 -10 73 0 55
-11 79 -58 130 l-24 26 26 18 c15 9 25 23 22 30 -3 8 0 11 8 8 18 -7 46 55 46
100 l0 36 80 0 80 0 2 -87z m-1312 -58 c-7 -9 -15 -13 -17 -11 -6 6 20 36 26
30 2 -2 -2 -10 -9 -19z m705 -17 c-9 -6 -19 -7 -22 -4 -4 3 -1 6 6 6 7 0 9 4
6 10 -4 6 1 7 11 3 15 -6 15 -7 -1 -15z m-2540 2 c-3 -5 -12 -10 -18 -10 -7 0
-6 4 3 10 19 12 23 12 15 0z m3509 -287 c0 -46 4 -83 8 -83 4 0 8 38 8 85 l0
85 175 0 175 0 0 -175 0 -175 -84 0 c-72 0 -85 3 -90 18 -2 9 -3 -1 -2 -23 5
-65 -73 -170 -131 -177 -22 -3 -20 -4 13 -14 36 -12 38 -11 77 25 33 31 42 48
52 97 l11 59 45 3 c24 2 58 1 76 -3 l33 -6 0 -174 0 -175 -73 0 c-43 0 -78 5
-85 12 -7 7 -12 8 -13 2 -4 -76 -34 -144 -69 -158 -8 -4 -28 -14 -45 -23 l-29
-16 24 -9 c27 -10 70 4 70 22 0 6 4 9 8 6 14 -9 51 68 54 112 l3 42 78 0 77 0
0 -175 0 -175 -84 0 c-80 0 -85 1 -89 23 -3 12 -4 0 -3 -28 2 -27 -1 -54 -5
-60 -44 -56 -78 -89 -107 -104 l-35 -18 34 -7 c59 -12 116 47 126 132 l6 52
78 0 79 0 0 -176 0 -175 -87 2 c-97 2 -88 9 -92 -70 0 -19 -4 -32 -7 -29 -3 4
-20 -9 -37 -28 -18 -19 -49 -41 -71 -48 l-38 -13 32 -12 c28 -9 38 -8 64 7 38
22 76 88 78 136 l1 36 79 0 78 0 0 -175 0 -175 -80 0 c-74 0 -81 2 -90 23 -8
18 -9 14 -6 -20 2 -24 -3 -54 -11 -70 -7 -15 -11 -34 -8 -42 3 -8 3 -12 -1 -9
-6 7 -71 -36 -85 -56 -4 -5 -12 -5 -18 -2 -6 4 -11 3 -11 -3 0 -16 46 -24 69
-12 50 27 76 82 80 169 1 8 24 12 81 12 l80 0 0 -175 0 -175 -80 0 c-62 0 -81
3 -88 16 -6 11 -9 4 -10 -26 -1 -22 -9 -54 -17 -70 -8 -16 -15 -37 -16 -47 0
-11 -3 -13 -6 -5 -4 9 -9 8 -21 -6 -10 -10 -27 -24 -40 -31 -20 -10 -21 -14
-8 -26 11 -11 21 -12 38 -6 13 6 19 10 14 10 -5 1 3 10 18 22 34 27 47 51 55
108 l6 46 78 3 77 3 0 -174 c0 -173 0 -175 -22 -181 -46 -12 -126 -6 -142 10
-15 14 -16 11 -16 -36 0 -45 -4 -55 -41 -95 -22 -24 -55 -49 -73 -55 -46 -15
-118 -15 -147 0 -22 12 -23 12 -11 -3 18 -22 72 -40 73 -24 0 7 4 3 8 -7 4
-10 7 -49 7 -85 l-1 -66 -82 -3 c-73 -2 -83 -1 -83 14 0 36 -10 5 -14 -40 -4
-52 -41 -108 -92 -138 -43 -25 -123 -31 -158 -13 -16 9 -31 14 -33 12 -6 -7
43 -36 71 -43 25 -6 26 -9 26 -80 l0 -74 -91 0 c-87 0 -90 -1 -84 -21 7 -21
-8 -62 -32 -87 -7 -7 -16 -19 -20 -26 -29 -46 -150 -74 -202 -46 -13 6 -25 10
-27 7 -4 -4 48 -32 79 -41 14 -5 17 -18 17 -81 l0 -75 -177 2 -178 3 -1 65
c-2 71 3 93 18 84 34 -21 167 59 154 93 -3 8 -1 11 4 8 6 -3 10 5 10 19 0 14
-4 28 -10 31 -5 3 -10 0 -10 -8 0 -8 -14 -29 -32 -46 -17 -17 -28 -34 -23 -38
4 -5 10 -2 12 5 3 6 9 12 15 12 6 0 5 -6 -2 -15 -7 -9 -19 -14 -26 -11 -8 3
-32 -3 -55 -13 -23 -11 -48 -17 -56 -14 -7 3 -13 -1 -13 -8 0 -10 -3 -10 -8
-3 -4 6 -23 15 -42 19 -32 6 -34 6 -15 -8 11 -8 30 -17 43 -21 20 -7 22 -13
22 -82 l0 -74 -175 0 -175 0 0 70 c0 76 -1 74 63 85 70 11 143 100 117 142
-10 16 -11 15 -7 -9 2 -16 0 -28 -4 -28 -5 0 -9 6 -9 13 -1 6 -6 2 -13 -11 -7
-12 -31 -35 -52 -50 -34 -23 -50 -27 -107 -27 -49 0 -64 -3 -57 -12 6 -6 21
-14 34 -17 24 -6 25 -10 25 -81 l0 -75 -175 0 -175 0 0 75 0 75 29 0 c39 0 70
13 102 41 44 40 61 73 50 100 -9 24 -9 24 -18 3 -37 -92 -159 -142 -243 -101
-18 10 -35 15 -37 13 -6 -6 66 -46 82 -46 19 0 27 -34 23 -101 l-3 -54 -175 0
-175 0 0 175 0 175 83 1 c45 1 85 4 89 8 3 3 -35 6 -85 6 l-92 0 0 68 0 67 50
12 c58 14 106 47 127 87 13 26 13 30 -3 45 -9 9 -14 11 -10 4 3 -6 0 -13 -6
-16 -10 -3 -10 -8 2 -23 9 -13 10 -15 1 -7 -11 9 -23 5 -56 -23 -23 -18 -53
-34 -66 -35 -22 0 -23 -1 -4 -9 16 -7 17 -9 3 -9 -9 -1 -20 4 -23 9 -3 6 -17
7 -30 4 -13 -3 -38 1 -55 9 -16 9 -30 12 -30 7 0 -4 20 -16 45 -27 l45 -18 0
-72 0 -73 -175 0 -175 0 0 175 0 175 88 2 87 2 -87 3 -88 4 0 74 0 75 35 0
c20 0 49 7 65 15 30 16 80 74 80 93 0 18 5 15 55 -36 l47 -48 63 4 c35 2 71
-1 83 -7 30 -16 67 4 101 55 l28 43 32 -39 c17 -22 43 -43 56 -46 23 -6 22 -7
-22 -37 -66 -45 -87 -90 -84 -183 1 -35 9 -49 54 -97 l52 -57 97 -2 c95 -3 97
-2 128 27 17 16 34 43 38 59 l8 30 23 -37 c39 -63 71 -79 150 -75 38 2 67 0
64 -4 -2 -5 5 -8 17 -8 12 0 18 4 15 10 -3 5 0 7 8 4 28 -10 96 73 81 99 -4 6
17 -14 46 -46 l53 -59 78 4 c42 1 75 0 73 -3 -2 -4 3 -9 11 -13 17 -6 74 40
94 78 12 21 12 28 1 43 -7 10 13 -9 46 -43 l59 -61 70 -2 c38 -1 76 -6 84 -11
19 -11 63 10 57 27 -3 7 0 12 6 10 17 -3 60 64 52 82 -3 9 -9 46 -13 83 -5 54
-13 75 -37 105 -17 21 -44 45 -61 54 l-31 15 32 14 c38 16 67 20 60 8 -3 -4
-10 -6 -15 -3 -5 4 -18 0 -29 -8 -17 -12 -18 -16 -6 -20 8 -3 31 9 52 27 33
28 39 39 39 73 l0 40 26 -41 c49 -76 73 -91 137 -88 31 2 69 -1 85 -7 27 -10
77 2 77 19 0 4 11 19 24 33 23 25 24 32 19 104 -7 93 -26 136 -85 186 -24 21
-35 35 -25 31 10 -3 17 -3 16 2 -3 18 1 25 11 19 8 -5 7 -12 -2 -22 -10 -13
-9 -15 7 -11 11 2 19 10 17 16 -1 7 3 11 9 10 6 -2 20 9 32 25 18 23 21 39 18
109 -3 92 -8 107 -59 161 -20 20 -30 37 -23 37 7 0 9 5 5 12 -4 7 -3 8 5 4 21
-13 81 66 81 105 0 6 -3 8 -7 6 -5 -3 -7 21 -5 53 4 68 -13 108 -67 159 -20
18 -29 31 -21 29 20 -7 67 27 85 62 10 20 13 47 9 96 -8 103 -11 112 -62 167
-26 28 -39 48 -30 44 20 -7 63 25 82 61 20 41 7 178 -21 217 -26 36 -73 81
-93 88 -8 3 -3 5 12 4 15 -1 24 -5 22 -9 -7 -11 4 -10 27 3 11 5 16 15 13 21
-4 6 -3 8 3 5 13 -8 38 19 52 55 6 17 7 29 1 33 -6 4 -10 34 -10 68 0 66 -9
86 -63 144 -27 29 -28 31 -10 37 11 3 33 20 49 37 28 29 29 33 26 111 -3 89
-17 124 -65 176 -17 17 -25 32 -18 32 13 0 80 64 82 78 0 4 3 16 6 27 2 11 7
35 10 53 l5 33 77 -3 76 -3 -1 -82z m-4543 14 c-10 -9 -11 -8 -5 6 3 10 9 15
12 12 3 -3 0 -11 -7 -18z m-361 -2 c-6 -8 -8 -20 -4 -27 5 -10 4 -10 -5 -2
-13 12 -5 44 11 44 6 0 5 -6 -2 -15z m1088 -5 c-7 -10 -14 -17 -17 -15 -4 4
18 35 25 35 2 0 -1 -9 -8 -20z m1832 16 c0 -3 -4 -8 -10 -11 -5 -3 -10 -1 -10
4 0 6 5 11 10 11 6 0 10 -2 10 -4z m1071 -23 c-12 -20 -14 -14 -5 12 4 9 9 14
11 11 3 -2 0 -13 -6 -23z m361 -10 c-6 -10 -23 -29 -38 -43 -25 -22 -25 -21 4
13 18 21 32 43 32 49 0 6 3 9 6 6 3 -4 1 -15 -4 -25z m-4594 -77 c9 4 -4 -8
-29 -25 -25 -17 -56 -50 -69 -72 l-23 -42 -14 29 c-8 16 -33 46 -56 66 -34 30
-37 36 -18 31 18 -5 22 -3 16 7 -6 9 -4 11 5 5 13 -8 65 45 76 78 4 14 13 9
50 -32 31 -34 50 -48 62 -45z m959 79 c0 -8 -4 -12 -9 -9 -5 3 -6 10 -3 15 9
13 12 11 12 -6z m2312 -81 c10 4 9 1 -3 -7 -44 -28 -97 -81 -102 -103 -8 -32
-19 -30 -34 6 -7 16 -29 45 -50 64 -29 26 -35 36 -23 40 8 3 19 3 25 0 5 -4
23 8 39 25 31 34 41 63 14 41 -10 -9 -15 -9 -15 -1 0 10 13 15 33 12 4 0 7 4
7 10 0 6 21 -12 46 -40 31 -34 52 -50 63 -47z m271 88 c0 -16 82 -93 115 -106
l35 -15 0 -70 0 -71 -83 0 -83 0 -13 36 c-7 20 -29 54 -48 75 -20 22 -34 41
-32 43 2 2 14 9 27 15 12 7 20 15 18 20 -3 4 6 15 20 25 13 11 24 27 24 37 0
11 5 19 10 19 6 0 10 -3 10 -8z m461 -87 c8 5 10 4 5 -3 -4 -7 3 -14 19 -18
l25 -6 0 -259 0 -259 -175 0 -175 0 0 180 0 181 170 -3 c94 -2 170 0 170 5 0
4 -76 7 -170 7 l-170 0 0 69 0 69 37 7 c51 9 115 43 110 58 -3 7 -10 11 -16 9
-7 -1 -10 2 -6 8 5 8 11 8 20 0 13 -11 26 0 38 33 6 15 15 9 56 -34 31 -33 54
-48 62 -44z m303 -48 c-32 -28 -48 -52 -56 -83 l-12 -44 -89 0 -89 0 5 76 c5
81 14 99 43 91 16 -4 15 -5 -3 -6 -13 0 -23 -5 -23 -11 0 -13 -3 -13 57 5 53
16 113 70 113 102 0 10 19 -5 49 -37 l50 -54 -45 -39z m-3007 100 c0 -8 -6
-14 -14 -14 -9 0 -10 4 -2 14 6 7 12 13 14 13 1 0 2 -6 2 -13z m743 3 c0 -5
-2 -10 -4 -10 -3 0 -8 5 -11 10 -3 6 -1 10 4 10 6 0 11 -4 11 -10z m-1865 -30
c-10 -11 -22 -20 -28 -20 -5 0 1 9 14 20 31 25 37 25 14 0z m385 10 c-8 -5
-19 -10 -25 -10 -5 0 -3 5 5 10 8 5 20 10 25 10 6 0 3 -5 -5 -10z m2901 -3
c-6 -8 -8 -17 -4 -21 4 -4 -1 -4 -11 0 -15 6 -17 4 -11 -6 6 -9 4 -11 -5 -5
-10 6 -7 12 11 26 29 22 36 24 20 6z m729 9 c0 -2 -8 -10 -17 -17 -16 -13 -17
-12 -4 4 13 16 21 21 21 13z m-390 -30 c0 -3 -4 -8 -10 -11 -5 -3 -10 -1 -10
4 0 6 5 11 10 11 6 0 10 -2 10 -4z m-385 -16 c3 -6 -1 -7 -9 -4 -18 7 -21 14
-7 14 6 0 13 -4 16 -10z m-1498 -16 c-3 -3 -12 -4 -19 -1 -8 3 -5 6 6 6 11 1
17 -2 13 -5z m-47 -344 l0 -180 -175 0 -175 0 0 75 0 75 41 0 c28 0 38 4 33
12 -4 7 -3 8 5 4 15 -10 65 27 90 68 12 19 21 50 21 73 0 22 3 43 7 46 3 4 39
7 80 7 l73 0 0 -180z m1818 -2 l2 -178 -80 0 -81 0 -18 44 c-11 23 -33 59 -50
79 -20 22 -28 38 -21 42 8 5 7 12 -2 23 -12 16 -11 16 6 2 17 -13 21 -12 46
19 31 37 52 102 39 122 -13 22 11 29 86 27 l70 -3 3 -177z m552 162 c0 -34 36
-94 78 -132 l40 -36 -36 -25 c-37 -25 -65 -69 -76 -120 l-7 -28 -87 3 -87 3
-3 163 c-2 90 -1 170 2 178 4 11 26 14 91 14 79 0 85 -1 85 -20z m-4363 -52
c-3 -8 -6 -5 -6 6 -1 11 2 17 5 13 3 -3 4 -12 1 -19z m4783 -60 c23 -27 48
-48 57 -48 8 0 -5 -15 -29 -33 -24 -18 -50 -47 -58 -64 -19 -40 -24 -41 -40
-4 -6 16 -32 48 -56 69 -34 32 -40 41 -27 46 9 4 18 4 21 1 3 -3 -1 -5 -9 -5
-12 0 -12 -2 1 -10 18 -11 34 -2 65 40 25 34 34 67 15 55 -12 -7 -12 -3 -3 21
6 16 7 16 14 -2 3 -10 26 -40 49 -66z m-4063 40 c-3 -8 -6 -5 -6 6 -1 11 2 17
5 13 3 -3 4 -12 1 -19z m4373 12 c0 -5 -5 -10 -11 -10 -5 0 -7 5 -4 10 3 6 8
10 11 10 2 0 4 -4 4 -10z m-1780 -34 c13 -17 36 -41 52 -53 l30 -21 -30 -16
c-32 -17 -82 -74 -82 -94 0 -19 -18 -14 -25 7 -3 10 -21 34 -39 52 l-34 33 41
37 c38 33 40 38 27 55 -14 17 -13 18 1 7 16 -13 29 -8 29 9 0 5 -4 7 -9 3 -5
-3 -12 -2 -15 3 -2 4 4 8 14 9 10 1 28 -12 40 -31z m315 14 c3 -5 1 -10 -4
-10 -6 0 -11 5 -11 10 0 6 2 10 4 10 3 0 8 -4 11 -10z m1067 -23 c-12 -13 -19
-27 -15 -32 5 -4 2 -5 -5 -1 -11 6 -8 13 9 32 12 13 25 24 27 24 3 0 -4 -10
-16 -23z m-1092 -7 c0 -5 -5 -10 -11 -10 -5 0 -7 5 -4 10 3 6 8 10 11 10 2 0
4 -4 4 -10z m-375 -28 c-3 -3 -11 0 -18 7 -9 10 -8 11 6 5 10 -3 15 -9 12 -12z
m-3295 0 c0 -5 -12 -14 -27 -21 l-28 -11 24 20 c26 22 31 24 31 12z m5094 -7
c-4 -8 -10 -12 -15 -9 -11 6 -2 24 11 24 5 0 7 -7 4 -15z m-3644 0 c0 -2 -10
-9 -22 -15 -22 -11 -22 -10 -4 4 21 17 26 19 26 11z m355 -5 c3 -5 1 -10 -4
-10 -6 0 -11 5 -11 10 0 6 2 10 4 10 3 0 8 -4 11 -10z m1465 0 c0 -5 -2 -10
-4 -10 -3 0 -8 5 -11 10 -3 6 -1 10 4 10 6 0 11 -4 11 -10z m-33 -15 c0 -8 -4
-12 -9 -9 -5 3 -6 10 -3 15 9 13 12 11 12 -6z m-3897 -205 c0 -51 88 -163 119
-153 9 3 -4 -8 -29 -24 -53 -34 -79 -71 -87 -119 l-6 -34 -88 0 -89 0 0 175 0
175 90 0 c84 0 90 -1 90 -20z m4540 -155 l0 -175 -82 0 -83 0 -18 45 c-11 25
-32 59 -49 77 l-30 32 26 19 c14 10 23 24 20 29 -4 7 -2 8 4 4 17 -11 42 36
49 93 l6 51 78 0 79 0 0 -175z m360 0 l0 -175 -175 0 -175 0 0 175 0 175 175
0 175 0 0 -175z m202 133 c7 -26 31 -62 58 -90 l46 -48 -38 -26 c-36 -26 -78
-93 -78 -127 0 -15 -12 -17 -89 -17 l-89 0 -2 175 -1 175 90 0 90 0 13 -42z
m-735 -10 c-3 -8 -6 -5 -6 6 -1 11 2 17 5 13 3 -3 4 -12 1 -19z m1085 -20 c-8
-8 -9 -4 -5 13 4 13 8 18 11 10 2 -7 -1 -18 -6 -23z m-1339 -102 c4 4 7 4 7 1
0 -4 -18 -18 -40 -32 -22 -14 -48 -41 -57 -60 -9 -19 -19 -35 -23 -35 -3 0
-13 12 -22 28 -9 15 -28 38 -42 51 l-26 24 30 19 c35 21 72 77 65 97 -3 7 19
-12 48 -43 29 -31 56 -54 60 -50z m-3663 -23 c-34 -24 -61 -56 -75 -87 l-13
-30 -17 35 c-10 19 -34 49 -53 67 -27 24 -31 32 -18 32 11 0 15 4 10 13 -6 9
-4 9 8 -1 13 -10 20 -7 47 23 17 20 31 43 31 52 0 10 19 -4 51 -37 49 -51 50
-53 29 -67z m5110 32 c5 3 11 1 15 -4 3 -6 -7 -17 -22 -25 -34 -17 -65 -51
-85 -90 l-15 -28 -12 31 c-14 31 -85 101 -105 101 -6 1 3 8 19 17 17 8 40 25
53 36 12 11 22 16 22 11 0 -5 -18 -21 -40 -36 -31 -20 -37 -27 -25 -32 21 -8
58 20 87 66 l23 37 38 -45 c21 -24 42 -42 47 -39z m-1954 37 c-18 -16 -18 -16
-6 6 6 13 14 21 18 18 3 -4 -2 -14 -12 -24z m377 2 c-4 -12 -8 -13 -14 -3 -9
15 -2 32 11 24 5 -3 6 -13 3 -21z m-3659 -24 c-6 -6 -10 -3 -10 10 0 13 4 16
10 10 7 -7 7 -13 0 -20z m351 10 c-10 -11 -22 -20 -28 -20 -5 0 1 9 14 20 31
25 37 25 14 0z m3272 -1 c-9 -6 -15 -13 -13 -17 3 -4 -4 -8 -15 -8 -19 0 -18
1 3 18 13 10 28 18 33 17 6 0 2 -4 -8 -10z m-3692 -29 c-3 -5 -12 -10 -18 -10
-7 0 -6 4 3 10 19 12 23 12 15 0z m372 -4 c0 -8 -6 -12 -15 -9 -11 5 -11 7 0
14 7 5 13 9 14 9 0 0 1 -6 1 -14z m3268 -6 c3 -6 -1 -7 -9 -4 -18 7 -21 14 -7
14 6 0 13 -4 16 -10z m365 0 c8 -5 11 -10 5 -10 -5 0 -17 5 -25 10 -8 5 -10
10 -5 10 6 0 17 -5 25 -10z m-4254 -230 c14 -50 87 -134 107 -125 7 4 -1 -5
-18 -19 -16 -14 -33 -26 -37 -26 -4 0 -19 -20 -34 -45 -50 -86 -27 -189 58
-261 25 -20 29 -28 18 -32 -28 -9 -89 -78 -95 -108 -4 -16 -8 -35 -11 -41 -2
-9 -29 -13 -89 -13 l-85 0 0 175 0 175 80 0 c47 0 80 4 80 10 0 6 -33 10 -80
10 l-80 0 0 175 0 176 86 -3 87 -3 13 -45z m4534 -125 l0 -175 -72 0 c-114 0
-74 -16 50 -19 22 -1 22 -1 22 -176 l0 -175 -80 0 -80 0 -22 47 c-12 26 -42
66 -65 89 -46 44 -52 54 -28 54 8 0 15 -7 15 -16 0 -14 3 -14 15 -4 8 7 15 23
15 36 0 12 5 26 11 29 6 4 9 1 7 -7 -2 -7 2 -15 7 -16 6 -2 12 5 14 15 1 10
10 26 19 36 17 19 3 23 -18 5 -8 -7 -6 -2 3 12 27 40 31 52 18 60 -9 5 -8 9 5
14 11 4 14 10 8 14 -5 4 -18 26 -28 50 -11 23 -39 61 -64 84 -25 23 -38 38
-28 35 44 -17 106 56 114 135 l5 48 78 0 79 0 0 -175z m360 -185 l0 -360 -175
0 -175 0 0 175 0 175 155 0 c101 0 155 4 155 10 0 7 -48 11 -137 10 -76 -1
-146 -1 -155 0 -16 0 -18 15 -18 175 l0 175 175 0 175 0 0 -360z m198 315 c14
-51 73 -122 105 -127 19 -3 18 -6 -16 -27 -21 -13 -49 -40 -62 -60 -52 -80
-41 -159 32 -241 44 -49 46 -53 27 -63 -40 -22 -74 -66 -86 -111 l-12 -47 -86
3 -85 3 -1 173 -1 172 83 0 c49 0 84 4 84 10 0 6 -35 10 -84 10 l-83 0 -1 166
c-1 92 1 171 4 175 3 5 42 9 88 9 l82 0 12 -45z m-746 -47 c-8 -8 -9 -4 -5 13
4 13 8 18 11 10 2 -7 -1 -18 -6 -23z m-281 -56 c18 -19 35 -30 42 -25 7 4 -14
-18 -45 -48 -32 -30 -58 -62 -58 -72 0 -27 -16 -20 -30 13 -7 17 -26 41 -41
55 -32 26 -38 47 -12 43 21 -4 86 79 78 101 -3 9 4 5 15 -9 11 -14 34 -40 51
-58z m-3620 -26 c-2 -4 7 -5 20 -1 16 5 8 -5 -23 -29 -27 -20 -56 -53 -67 -73
l-18 -37 -16 30 c-18 34 -91 104 -109 104 -6 0 -9 2 -6 5 3 3 17 0 32 -6 24
-11 29 -9 56 16 28 27 42 53 21 40 -5 -3 -12 -1 -16 4 -3 6 4 8 16 6 14 -3 23
2 26 15 4 16 10 13 47 -23 22 -23 39 -46 37 -51z m5120 -1 c8 3 1 -5 -16 -19
-16 -14 -33 -26 -37 -26 -4 0 -19 -21 -34 -46 l-27 -46 -18 35 c-10 19 -31 45
-46 57 -25 19 -26 23 -11 31 34 19 78 74 78 96 0 12 17 -1 49 -36 32 -35 54
-51 62 -46z m-4886 47 l-28 -27 24 31 c13 17 26 30 28 27 3 -2 -8 -16 -24 -31z
m4759 29 c3 -5 -1 -11 -9 -14 -9 -4 -12 -1 -8 9 6 16 10 17 17 5z m-1460 -22
c-3 -5 -10 -7 -15 -3 -5 3 -7 10 -3 15 3 5 10 7 15 3 5 -3 7 -10 3 -15z m1812
2 c0 -13 -5 -17 -16 -13 -8 3 -12 2 -8 -3 11 -12 -11 -35 -34 -35 -10 0 -17 4
-13 10 3 5 12 7 20 3 9 -3 15 1 15 8 0 9 28 49 34 49 1 0 2 -8 2 -19z m354
-16 c-7 -9 -15 -13 -17 -11 -6 6 20 36 26 30 2 -2 -2 -10 -9 -19z m-5842 -17
c-7 -7 -20 -14 -28 -16 -8 -1 -4 6 10 17 27 21 41 20 18 -1z m5102 12 c-8 -5
-11 -10 -5 -10 5 0 4 -5 -3 -12 -9 -9 -15 -9 -24 1 -11 10 -9 11 5 5 10 -3 17
-3 16 2 -3 17 1 24 14 24 8 0 7 -4 -3 -10z m-1494 -25 c-11 -8 -25 -15 -30
-15 -6 1 0 7 14 15 32 19 40 18 16 0z m369 5 c-3 -5 -12 -10 -18 -10 -7 0 -6
4 3 10 19 12 23 12 15 0z m-3630 -10 c3 -5 2 -10 -4 -10 -5 0 -13 5 -16 10 -3
6 -2 10 4 10 5 0 13 -4 16 -10z m4709 -12 c-3 -4 -11 -5 -19 -1 -21 7 -19 12
4 10 11 0 18 -5 15 -9z m-1574 -92 c0 -11 -33 -36 -47 -36 -12 0 -11 5 7 20
21 19 40 26 40 16z m1745 -242 l35 -32 -35 -23 c-19 -13 -45 -43 -57 -66 l-23
-43 -13 28 c-8 15 -31 44 -51 65 -20 21 -31 37 -24 35 19 -5 74 35 68 50 -3 7
-1 10 5 7 16 -10 32 33 20 54 -19 37 -10 34 16 -5 14 -21 41 -53 59 -70z
m-5189 58 c-17 -16 -18 -16 -5 5 7 12 15 20 18 17 3 -2 -3 -12 -13 -22z m85
-52 c9 -8 24 -20 34 -25 16 -10 13 -14 -22 -37 -23 -15 -49 -44 -61 -68 l-21
-42 -20 40 c-11 22 -31 49 -44 59 l-24 19 38 27 c22 16 43 43 51 63 l12 35 21
-28 c11 -15 27 -35 36 -43z m3573 39 l13 24 27 -36 c15 -19 41 -41 57 -48 l31
-12 -28 -15 c-41 -21 -71 -50 -84 -83 -16 -37 -24 -37 -40 0 -12 30 -80 91
-101 91 -10 0 -10 3 0 13 11 10 14 9 18 -1 3 -6 10 -9 15 -6 7 5 8 2 3 -6 -5
-8 -3 -11 6 -8 8 3 13 11 12 17 -2 6 0 10 5 10 25 -4 32 4 32 39 0 47 14 65
18 26 l4 -29 12 24z m1446 17 c0 -2 -8 -10 -17 -17 -16 -13 -17 -12 -4 4 13
16 21 21 21 13z m-2916 -14 c3 -5 -1 -9 -9 -9 -8 0 -12 4 -9 9 3 4 7 8 9 8 2
0 6 -4 9 -8z m-2195 -34 c-12 -23 -20 -24 -12 0 6 15 5 15 -10 4 -9 -8 -15
-19 -14 -24 1 -6 -5 -13 -13 -15 -13 -4 -13 -3 0 6 8 6 11 11 6 11 -5 0 -2 8
7 18 10 10 24 19 32 19 10 0 12 -5 4 -19z m2181 2 c0 -5 -2 -10 -4 -10 -3 0
-8 5 -11 10 -3 6 -1 10 4 10 6 0 11 -4 11 -10z m2890 -5 c-7 -8 -17 -15 -23
-15 -6 0 -2 7 9 15 25 19 30 19 14 0z m365 -15 c-3 -5 -13 -6 -21 -3 -12 4
-13 8 -3 14 15 9 32 2 24 -11z m-415 -14 c0 -2 -7 -7 -16 -10 -8 -3 -12 -2 -9
4 6 10 25 14 25 6z m387 -2 c-3 -3 -12 -4 -19 -1 -8 3 -5 6 6 6 11 1 17 -2 13
-5z m-5480 -10 c-3 -3 -12 -4 -19 -1 -8 3 -5 6 6 6 11 1 17 -2 13 -5z m-263
-223 c4 -28 20 -55 55 -93 l49 -54 -34 -22 c-35 -23 -74 -87 -74 -122 0 -19
-6 -20 -90 -20 l-90 0 0 175 0 175 89 0 88 0 7 -39z m4536 -136 l0 -175 -84 0
-83 0 -17 44 c-9 24 -35 62 -58 84 -27 27 -34 39 -22 36 23 -6 83 53 76 74 -3
10 -7 10 -20 0 -14 -12 -14 -11 -1 9 12 20 14 21 23 6 8 -16 10 -15 17 2 4 11
8 37 8 58 l1 37 80 0 80 0 0 -175z m360 0 l0 -175 -175 0 -175 0 0 175 0 175
175 0 175 0 0 -175z m198 130 c8 -32 26 -60 58 -91 l46 -44 -46 -41 c-34 -30
-50 -54 -58 -85 l-12 -44 -88 0 -89 0 1 175 2 175 87 0 87 0 12 -45z m-731 -7
c-3 -8 -6 -5 -6 6 -1 11 2 17 5 13 3 -3 4 -12 1 -19z m1085 -20 c-8 -8 -9 -4
-5 13 4 13 8 18 11 10 2 -7 -1 -18 -6 -23z m-5095 -10 c-7 -17 -19 -34 -27
-36 -10 -4 -10 0 3 12 9 10 17 26 17 37 0 10 5 19 10 19 6 0 5 -13 -3 -32z
m81 -67 l33 -34 -36 -29 c-19 -17 -44 -46 -54 -66 l-18 -36 -16 30 c-9 17 -32
46 -52 66 -33 32 -34 35 -13 34 14 -1 23 5 23 14 0 8 -6 14 -13 12 -8 -1 -11
2 -7 8 5 8 11 7 21 -1 19 -15 39 2 56 48 l13 35 15 -24 c8 -12 30 -38 48 -57z
m1862 -24 c8 3 -4 -8 -26 -25 -50 -37 -82 -80 -90 -121 l-6 -31 -90 0 -89 0 3
68 c3 65 4 67 31 70 15 2 25 8 22 13 -3 5 1 6 10 3 17 -7 68 23 60 35 -2 5 3
8 12 7 10 0 25 14 37 36 l20 36 46 -48 c27 -29 51 -46 60 -43z m1763 36 l48
-51 -35 -20 c-20 -12 -44 -39 -56 -63 l-22 -41 -14 28 c-9 16 -29 44 -47 62
-17 17 -25 32 -18 32 7 0 9 5 5 12 -4 7 -3 8 5 4 13 -9 71 46 71 66 0 9 -3 8
-10 -2 -11 -17 -13 -10 -4 13 9 24 26 15 77 -40z m1456 6 l44 -49 -40 -35
c-22 -19 -46 -48 -53 -65 l-12 -30 -28 43 c-25 39 -63 73 -99 88 -11 4 -9 7 7
11 14 4 20 2 16 -4 -4 -6 2 -8 17 -3 19 5 21 4 9 -4 -8 -6 -10 -11 -4 -11 16
0 84 77 84 95 0 24 12 16 59 -36z m-2994 19 c-1 -12 -7 -24 -13 -26 -15 -5
-15 3 -2 29 14 25 17 24 15 -3z m3269 -3 c-4 -9 -16 -21 -28 -27 -19 -10 -19
-9 3 16 28 30 33 32 25 11z m-1839 -25 c-10 -11 -25 -20 -34 -20 -10 0 -6 7
12 18 15 9 27 21 27 26 0 5 3 6 7 3 3 -4 -2 -16 -12 -27z m-345 16 c0 -2 -8
-10 -17 -17 -16 -13 -17 -12 -4 4 13 16 21 21 21 13z m2531 -19 c-10 -9 -11
-8 -5 6 3 10 9 15 12 12 3 -3 0 -11 -7 -18z m-734 -2 c0 -8 -4 -12 -9 -9 -5 3
-6 10 -3 15 9 13 12 11 12 -6z m-1103 -3 c3 -5 -1 -9 -9 -9 -8 0 -12 4 -9 9 3
4 7 8 9 8 2 0 6 -4 9 -8z m1426 -17 c-7 -8 -20 -15 -29 -15 -11 0 -8 5 9 14
33 19 35 19 20 1z m-1830 -14 c0 -5 -9 -7 -20 -4 -11 3 -20 7 -20 9 0 2 9 4
20 4 11 0 20 -4 20 -9z m-3894 -232 c9 -29 30 -63 55 -88 l40 -43 74 4 c40 2
71 0 69 -3 -2 -4 5 -9 16 -12 12 -3 33 6 56 24 20 16 34 29 30 29 -4 0 0 7 8
16 9 8 16 23 16 32 0 11 15 0 41 -30 22 -27 47 -48 56 -48 22 0 12 -16 -27
-42 -49 -33 -80 -92 -80 -153 0 -29 -7 -60 -16 -73 -19 -28 -10 -69 12 -51 8
6 14 21 14 33 1 19 3 18 23 -9 49 -68 70 -79 149 -79 53 -1 76 3 85 14 10 13
11 11 6 -7 -3 -13 -1 -23 5 -23 17 0 82 60 82 75 0 7 6 17 13 23 10 8 23 -1
55 -38 30 -35 47 -47 60 -43 9 3 -5 -9 -32 -28 -68 -47 -94 -99 -98 -193 -2
-41 -6 -70 -9 -65 -3 5 -26 -8 -50 -31 -24 -22 -55 -41 -69 -42 -38 -2 -44 -3
-55 -10 -6 -4 -31 2 -55 13 -35 15 -40 15 -25 3 11 -9 35 -22 53 -30 32 -14
32 -15 32 -84 l0 -70 -179 0 -179 0 0 175 0 175 91 2 92 2 -90 5 -90 6 -2 55
c-2 74 2 85 34 88 41 3 94 22 88 32 -3 4 4 10 15 13 22 6 24 15 11 35 -6 11
-16 8 -46 -13 -49 -33 -73 -38 -140 -33 -60 5 -64 -4 -10 -22 l35 -12 0 -74 0
-74 -175 0 -175 0 0 175 0 175 88 2 c58 1 69 3 32 5 -30 2 -70 5 -87 8 l-33 6
0 175 0 175 86 -3 87 -3 13 -46z m4532 -126 l-3 -178 -79 -1 -78 -1 -19 43
c-10 24 -37 64 -60 89 -23 25 -35 43 -26 39 18 -6 81 39 70 50 -4 3 -2 6 4 6
14 0 33 54 33 90 0 15 3 30 7 33 3 4 39 7 80 7 l73 0 -2 -177z m362 -2 l0
-179 -175 -2 -175 -1 0 181 0 180 175 0 175 0 0 -179z m198 134 c15 -55 85
-137 110 -128 10 3 6 -3 -7 -13 -63 -49 -91 -84 -103 -128 l-12 -47 -86 3 -85
3 -1 170 c-1 94 1 173 3 178 2 4 41 7 87 7 l82 0 12 -45z m354 -37 c-8 -8 -9
-4 -5 13 4 13 8 18 11 10 2 -7 -1 -18 -6 -23z m-1402 -51 c0 -4 11 -12 25 -19
13 -6 22 -16 18 -21 -4 -7 1 -8 13 -3 10 3 -4 -15 -33 -41 -28 -27 -57 -59
-64 -72 l-12 -25 -18 36 c-10 20 -33 48 -51 63 -18 15 -27 24 -21 20 19 -9
105 79 97 99 -9 24 -19 8 -23 -37 -1 -5 -5 -6 -10 -3 -5 3 -15 -1 -22 -10 -16
-19 -69 -47 -69 -36 0 4 13 13 30 19 17 6 41 29 57 56 l28 44 27 -31 c15 -17
28 -34 28 -39z m291 21 c-12 -12 -21 -25 -21 -30 0 -4 -4 -8 -10 -8 -5 0 3 17
18 39 15 21 28 35 30 30 2 -4 -6 -18 -17 -31z m1849 38 c0 -3 -4 -8 -10 -11
-5 -3 -10 -1 -10 4 0 6 5 11 10 11 6 0 10 -2 10 -4z m-3650 -16 c0 -5 -5 -10
-11 -10 -5 0 -7 5 -4 10 3 6 8 10 11 10 2 0 4 -4 4 -10z m2991 -62 c14 -13 32
-22 40 -20 14 3 -10 -19 -54 -50 -13 -9 -32 -33 -41 -52 -9 -20 -19 -36 -21
-36 -2 0 -14 18 -26 40 -13 22 -33 47 -46 56 -13 8 -21 20 -17 26 5 7 2 9 -9
5 -9 -3 -19 -2 -21 2 -3 5 5 8 17 7 12 -1 21 -7 19 -14 -8 -39 75 46 92 93 6
18 8 17 24 -7 10 -15 29 -37 43 -50z m289 61 c0 -5 -5 -7 -12 -3 -7 5 -9 2 -6
-8 4 -8 0 -15 -7 -15 -10 0 -11 5 -4 19 11 20 29 24 29 7z m-5124 -27 c-17
-16 -18 -16 -5 5 7 12 15 20 18 17 3 -2 -3 -12 -13 -22z m-365 -1 c-6 -10 -7
-22 -3 -26 4 -5 1 -5 -6 -1 -9 5 -9 12 -2 27 6 10 13 19 16 19 2 0 0 -8 -5
-19z m5073 -26 c-4 -8 -11 -15 -16 -15 -6 0 -5 6 2 15 7 8 14 15 16 15 2 0 1
-7 -2 -15z m-5108 -7 c-2 -14 -8 -18 -28 -18 -6 0 -3 7 8 15 23 18 23 18 20 3z
m378 3 c3 -5 -2 -15 -12 -22 -15 -12 -16 -12 -5 2 7 9 10 19 6 22 -3 4 -4 7 0
7 3 0 8 -4 11 -9z m-34 -16 c-7 -8 -20 -15 -29 -15 -11 0 -8 5 9 14 33 19 35
19 20 1z m3655 6 c3 -5 2 -12 -3 -15 -5 -3 -9 1 -9 9 0 17 3 19 12 6z m245
-294 l0 -84 -40 -12 c-49 -15 -95 -53 -119 -99 l-19 -36 -20 41 c-12 23 -36
53 -54 67 -18 15 -26 24 -17 21 21 -8 72 36 93 79 9 19 16 50 16 70 l0 36 80
0 80 0 0 -83z m360 0 l0 -84 -40 -12 c-50 -15 -93 -51 -115 -97 l-17 -37 -13
29 c-17 40 -77 91 -125 105 l-40 12 0 84 0 83 175 0 175 0 0 -83z m193 56 c9
-45 62 -119 95 -134 l30 -13 -42 -26 c-22 -15 -50 -43 -61 -63 -11 -20 -22
-37 -26 -37 -4 0 -12 14 -19 30 -17 41 -63 78 -114 91 l-42 10 -2 85 -3 84 89
0 90 0 5 -27z m1267 -148 l0 -175 -175 0 -175 0 0 76 c0 46 4 73 10 69 17 -11
86 14 118 43 36 31 62 87 62 132 l0 30 80 0 80 0 0 -175z m-1993 133 c-3 -8
-6 -5 -6 6 -1 11 2 17 5 13 3 -3 4 -12 1 -19z m-3667 -63 c-6 -8 -8 -20 -4
-27 5 -10 4 -10 -6 -1 -11 10 -11 15 0 28 7 8 15 15 17 15 3 0 0 -7 -7 -15z
m1830 12 c0 -2 -15 -16 -32 -33 l-33 -29 29 33 c28 30 36 37 36 29z m-360 -10
c0 -2 -10 -12 -22 -23 l-23 -19 19 23 c18 21 26 27 26 19z m3617 -15 c-10 -10
-14 -22 -10 -27 5 -4 2 -5 -5 -1 -11 6 -10 12 4 27 9 10 19 19 22 19 3 0 -2
-8 -11 -18z m371 -2 c-7 -11 -17 -20 -22 -20 -5 0 -1 9 9 20 10 11 20 20 22
20 2 0 -2 -9 -9 -20z m-1842 -22 c5 -7 3 -8 -6 -3 -10 6 -12 4 -7 -8 4 -11 2
-14 -9 -10 -11 4 -12 9 -3 19 14 17 16 17 25 2z m-3641 -18 c-3 -5 -12 -10
-18 -10 -7 0 -6 4 3 10 19 12 23 12 15 0z m5050 0 c-3 -5 -1 -10 6 -10 7 0 10
-2 7 -5 -3 -3 -13 -2 -22 1 -14 5 -15 9 -4 15 17 11 20 11 13 -1z m-3965 -4
c0 -2 -7 -7 -16 -10 -8 -3 -12 -2 -9 4 6 10 25 14 25 6z m2500 -6 c-8 -5 -19
-10 -25 -10 -5 0 -3 5 5 10 8 5 20 10 25 10 6 0 3 -5 -5 -10z m-4090 -365 c0
-110 -4 -175 -10 -175 -5 0 -10 -5 -10 -11 0 -5 5 -7 10 -4 7 4 10 -57 10
-174 l0 -181 -175 0 -175 0 0 178 0 178 160 -1 c88 0 160 3 160 8 0 4 -72 7
-160 7 l-160 0 0 175 0 175 175 0 175 0 0 -175z m5828 0 l0 -175 -179 0 -179
0 0 70 c0 60 3 70 18 70 73 0 169 70 157 113 -5 17 -4 19 4 7 7 -11 11 -1 17
38 l7 52 77 0 78 0 0 -175z m362 0 l0 -175 -160 0 c-88 0 -160 -3 -160 -7 0
-5 72 -8 160 -8 l160 1 0 -178 0 -178 -175 0 -175 0 0 181 c0 117 3 178 10
174 6 -3 10 -1 10 4 0 6 -4 11 -10 11 -6 0 -10 65 -10 175 l0 175 175 0 175 0
0 -175z m-5557 27 c32 -33 33 -34 109 -30 42 2 72 0 66 -3 -5 -3 1 -9 13 -12
18 -5 32 3 66 39 24 24 43 52 43 60 0 10 19 -5 46 -35 l46 -51 71 0 c40 0 78
-4 86 -9 19 -12 63 8 57 26 -3 8 -1 11 4 8 9 -5 50 50 50 68 0 15 -17 6 -28
-15 -6 -13 -11 -18 -11 -12 -1 5 5 19 13 30 14 18 17 16 69 -39 l54 -59 76 4
c41 1 73 0 71 -4 -9 -15 23 -14 50 1 34 19 80 87 70 104 -4 7 17 -14 45 -45
34 -37 57 -55 67 -51 9 3 14 0 12 -8 -2 -8 7 -15 20 -17 21 -3 22 -8 22 -78
l0 -74 -80 0 c-57 0 -80 4 -80 13 0 8 -3 7 -10 -3 -5 -8 -5 -20 -1 -28 10 -19
-23 -87 -57 -119 -61 -56 -151 -74 -215 -43 -20 10 -19 9 3 -9 14 -11 37 -23
53 -26 26 -6 27 -8 27 -81 l0 -74 -175 0 -175 0 0 75 c0 74 0 75 25 75 38 0
92 26 120 57 31 35 39 58 30 91 -6 25 -7 25 -25 -16 -18 -40 -95 -102 -127
-102 -7 0 -13 -6 -14 -12 0 -10 -2 -10 -6 0 -2 6 -18 12 -34 12 -17 0 -44 7
-62 16 l-32 15 25 -21 c14 -11 37 -23 53 -26 15 -4 27 -10 28 -15 0 -5 0 -39
1 -76 l0 -68 -176 -3 -176 -2 0 70 c0 48 4 72 13 74 6 2 30 8 52 13 22 5 39
14 38 21 -2 6 3 9 10 6 15 -5 62 43 72 74 3 12 2 30 -4 39 -9 15 -10 15 -11 2
0 -8 -9 -25 -21 -37 -11 -12 -17 -27 -14 -32 3 -6 -1 -7 -9 -4 -9 3 -16 2 -16
-3 0 -5 -20 -17 -44 -28 -28 -12 -40 -23 -33 -27 8 -5 6 -8 -5 -8 -10 0 -18 4
-18 9 0 5 -12 9 -27 9 -16 0 -41 5 -57 11 -16 6 -30 10 -32 8 -4 -3 51 -32 79
-41 14 -4 17 -18 17 -81 l0 -75 -175 0 -175 0 0 179 0 179 85 -2 c47 0 85 2
85 7 0 4 -38 7 -85 7 l-85 0 0 70 c0 68 1 70 25 70 14 0 42 7 63 15 30 13 34
18 22 26 -11 8 -9 9 9 4 20 -6 23 -4 18 9 -4 10 -3 14 3 11 15 -9 43 42 37 68
-5 19 -3 18 19 -8 14 -16 39 -45 57 -63z m4644 56 c-3 -8 -6 -5 -6 6 -1 11 2
17 5 13 3 -3 4 -12 1 -19z m-3286 -11 c-10 -9 -11 -8 -5 6 3 10 9 15 12 12 3
-3 0 -11 -7 -18z m2549 -1 c0 -2 -8 -10 -17 -17 -16 -13 -17 -12 -4 4 13 16
21 21 21 13z m717 -14 c0 -10 -6 -19 -13 -19 -9 0 -9 5 -1 19 7 10 13 18 14
18 1 0 1 -8 0 -18z m-4361 -14 c4 -7 3 -8 -4 -4 -6 3 -16 -3 -22 -14 -6 -11
-18 -19 -28 -19 -16 1 -16 2 1 6 9 2 17 11 17 18 0 7 6 16 13 18 6 3 13 6 14
6 1 1 5 -4 9 -11z m704 -3 c-10 -12 -10 -15 1 -15 11 0 11 -2 -1 -10 -8 -5
-24 -9 -35 -9 -16 1 -16 2 5 9 14 4 19 8 11 9 -11 1 -10 5 5 16 25 19 30 19
14 0z m2566 3 c4 -6 3 -8 -4 -4 -6 3 -15 -2 -21 -11 -9 -16 -10 -16 -11 -1 0
9 6 19 13 21 6 3 13 6 14 6 1 1 5 -4 9 -11z m-2201 -8 c4 -6 3 -10 -2 -9 -19
3 -27 -2 -15 -9 9 -6 5 -12 -15 -20 -26 -11 -27 -11 -9 3 13 10 15 15 6 15 -9
0 -7 5 6 15 23 18 21 17 29 5z m2152 -24 c0 -8 -6 -12 -15 -9 -11 5 -11 7 0
14 7 5 13 9 14 9 0 0 1 -6 1 -14z m-1447 -6 c-8 -5 -19 -10 -25 -10 -5 0 -3 5
5 10 8 5 20 10 25 10 6 0 3 -5 -5 -10z m1080 0 c0 -5 -5 -10 -11 -10 -5 0 -7
5 -4 10 3 6 8 10 11 10 2 0 4 -4 4 -10z m-1933 -16 c-3 -3 -12 -4 -19 -1 -8 3
-5 6 6 6 11 1 17 -2 13 -5z m-1452 -354 l0 -175 -175 0 -175 0 -3 165 c-1 90
0 170 2 177 4 9 47 12 178 10 l173 -2 0 -175z m1455 -2 l0 -178 -175 0 -175 0
0 69 0 70 44 6 c63 10 120 60 141 125 9 28 14 57 11 65 -6 17 19 23 97 22 l57
0 0 -179z m1090 0 l0 -178 -175 0 -175 0 0 70 c0 76 -1 74 63 85 20 3 53 19
72 36 37 33 71 107 62 138 -6 26 5 30 85 28 l68 -2 0 -177z m370 1 l0 -179
-175 0 -175 0 0 179 0 178 175 1 175 1 0 -180z m360 0 l0 -179 -175 0 -175 0
0 179 0 179 175 1 175 0 0 -180z m1820 -1 l0 -178 -175 0 -175 0 0 75 0 75 30
0 c62 0 154 69 134 101 -4 8 -3 9 5 5 13 -9 19 5 25 59 3 22 5 41 5 43 1 1 35
1 76 0 l75 -3 0 -177z m365 2 l0 -175 -175 0 -175 0 -3 165 c-1 90 0 170 2
177 4 9 47 12 178 10 l173 -2 0 -175z m-1663 38 c-7 -7 -12 -8 -12 -2 0 14 12
26 19 19 2 -3 -1 -11 -7 -17z m-2609 -55 c-7 -2 -21 -2 -30 0 -10 3 -4 5 12 5
17 0 24 -2 18 -5z m-1183 -348 l0 -175 -179 0 -180 0 2 170 c1 94 -1 170 -5
170 -5 0 -8 -76 -8 -170 l0 -170 -175 0 -175 0 0 175 0 175 360 0 360 0 0
-175z m360 0 l0 -175 -175 0 -175 0 0 175 0 175 175 0 175 0 0 -175z m365 0
l0 -175 -177 0 -178 0 0 175 0 175 178 0 177 0 0 -175z m365 0 l0 -175 -175 0
-175 0 0 175 0 175 175 0 175 0 0 -175z m360 0 l0 -175 -175 0 -175 0 0 175 0
175 175 0 175 0 0 -175z m370 0 l0 -175 -179 0 -180 0 0 175 0 175 179 0 180
0 0 -175z m360 0 l0 -175 -175 0 -175 0 0 175 0 175 175 0 175 0 0 -175z m730
0 l0 -175 -360 0 -360 0 0 175 0 175 360 0 360 0 0 -175z m360 0 l0 -175 -175
0 -175 0 0 175 0 175 175 0 175 0 0 -175z m369 0 l0 -175 -180 0 -179 0 0 175
0 175 180 0 179 0 0 -175z m361 0 l0 -175 -175 0 -175 0 0 175 0 175 175 0
175 0 0 -175z m360 0 l0 -175 -175 0 -175 0 0 175 0 175 175 0 175 0 0 -175z
m370 0 l0 -175 -178 0 -179 0 -1 175 -2 175 180 0 180 0 0 -175z m360 0 l0
-175 -175 0 -175 0 0 175 0 175 175 0 175 0 0 -175z m730 0 l0 -175 -175 0
-175 0 0 170 c0 94 -3 170 -7 170 -5 0 -7 -70 -6 -155 2 -85 0 -161 -3 -170
-5 -13 -33 -15 -180 -15 l-174 0 0 175 0 175 360 0 360 0 0 -175z m-6190 -362
l0 -178 -162 2 c-90 1 -169 2 -175 3 -10 0 -13 42 -13 175 l0 175 175 0 175 0
0 -177z m365 -2 l0 -174 -175 1 -175 1 -3 162 c-2 89 -1 168 2 176 5 11 38 13
178 11 l173 -3 0 -174z m363 3 l-3 -176 -173 -1 -172 -2 0 178 0 177 175 0
175 0 -2 -176z m364 -2 l-2 -173 -172 0 -173 0 -3 163 c-1 89 0 168 3 175 3
11 42 13 176 11 l172 -3 -1 -173z m366 2 l-3 -176 -173 -2 -172 -1 0 178 0
177 175 0 175 0 -2 -176z m360 0 l-3 -175 -170 0 -170 0 -3 175 -2 176 175 0
175 0 -2 -176z m367 -3 l0 -174 -175 0 -175 1 -3 163 c-1 90 0 169 3 176 3 11
42 13 177 11 l173 -3 0 -174z m365 -2 l0 -181 -22 6 c-13 3 -92 6 -175 6
l-153 0 0 175 0 175 175 0 175 0 0 -181z m360 11 c0 -107 4 -170 10 -170 6 0
10 63 10 170 l0 170 175 0 175 0 -2 -176 -3 -176 -355 0 -355 0 -3 176 -2 176
175 0 175 0 0 -170z m730 -5 l0 -174 -167 -3 c-93 -2 -171 -2 -175 0 -5 2 -8
82 -8 178 l0 174 175 0 175 0 0 -175z m365 -4 l0 -173 -175 -1 -175 0 -3 164
c-1 90 0 169 3 176 3 11 42 13 177 11 l173 -3 0 -174z m363 3 l-3 -175 -170 0
-170 0 -3 175 -2 176 175 0 175 0 -2 -176z m362 -1 l0 -178 -172 1 -173 2 -3
176 -2 176 175 0 175 0 0 -177z m365 -1 l0 -173 -175 0 -175 0 -2 168 c-1 92
1 171 4 176 2 4 82 6 176 5 l172 -3 0 -173z m365 3 c0 -133 -3 -175 -12 -176
-7 0 -85 0 -173 -1 l-160 0 -3 176 -2 176 175 0 175 0 0 -175z m365 -3 l0
-173 -175 -1 -175 -1 -3 164 c-1 90 0 169 3 176 3 11 42 13 177 11 l173 -3 0
-173z m365 3 c0 -133 -3 -175 -12 -175 -7 -1 -86 -2 -176 -3 l-162 -2 0 178 0
177 175 0 175 0 0 -175z m-6190 -370 l0 -175 -175 0 -175 0 0 175 0 175 175 0
175 0 0 -175z m370 0 l0 -175 -174 0 c-164 0 -174 1 -179 20 -3 10 -5 89 -6
175 l0 155 179 0 180 0 0 -175z m360 0 l0 -175 -175 0 -175 0 0 175 0 175 175
0 175 0 0 -175z m365 0 l0 -175 -177 0 -178 0 0 175 0 175 178 0 177 0 0 -175z
m365 0 l0 -175 -175 0 -175 0 0 175 0 175 175 0 175 0 0 -175z m360 0 l0 -175
-175 0 -175 0 0 175 0 175 175 0 175 0 0 -175z m370 0 l0 -175 -180 0 -180 0
0 175 0 175 180 0 180 0 0 -175z m360 0 l0 -175 -175 0 -175 0 0 175 0 175
175 0 175 0 0 -175z m364 163 c5 -10 7 -10 12 0 4 9 50 12 180 12 l174 0 0
-175 0 -175 -175 0 -175 0 0 160 c0 100 -4 160 -10 160 -6 0 -10 -60 -10 -160
l0 -160 -175 0 -175 0 0 175 0 175 174 0 c130 0 176 -3 180 -12z m726 -163 l0
-175 -175 0 -175 0 0 175 0 175 175 0 175 0 0 -175z m370 0 l0 -175 -180 0
-180 0 0 175 0 175 180 0 180 0 0 -175z m360 0 l0 -175 -175 0 -175 0 0 175 0
175 175 0 175 0 0 -175z m360 0 l0 -175 -175 0 -175 0 0 175 0 175 175 0 175
0 0 -175z m370 0 l0 -175 -179 0 -179 0 -1 175 0 175 179 0 180 0 0 -175z
m360 0 l0 -175 -175 0 -175 0 0 175 0 175 175 0 175 0 0 -175z m369 20 c-1
-86 -3 -165 -6 -175 -5 -19 -15 -20 -179 -20 l-174 0 0 175 0 175 180 0 179 0
0 -155z m361 -20 l0 -175 -175 0 -175 0 0 175 0 175 175 0 175 0 0 -175z"/>
        <path d="M3990 6380 c0 -93 4 -150 10 -150 6 0 10 57 10 150 0 93 -4 150 -10
150 -6 0 -10 -57 -10 -150z"/>
        <path d="M3990 6210 c0 -5 5 -10 10 -10 6 0 10 5 10 10 0 6 -4 10 -10 10 -5 0
-10 -4 -10 -10z"/>
        <path d="M3990 4910 c0 -100 4 -160 10 -160 6 0 10 60 10 160 0 100 -4 160
-10 160 -6 0 -10 -60 -10 -160z"/>
        <path d="M4282 4914 c11 -11 21 -14 26 -9 4 6 6 9 3 8 -2 -1 -13 3 -25 9 -20
10 -20 10 -4 -8z"/>
        <path d="M4272 4555 c9 -10 21 -16 28 -13 7 2 -1 10 -16 17 -27 12 -28 11 -12
-4z"/>
        <path d="M3818 4382 l4 -27 176 3 c97 1 178 5 181 7 2 3 -75 5 -172 5 -147 0
-177 2 -177 14 0 8 -4 17 -8 20 -5 3 -7 -7 -4 -22z"/>
        <path d="M3814 4311 c-3 -15 -18 -41 -32 -57 -15 -16 -26 -32 -25 -36 2 -4 -3
-5 -11 -2 -7 3 -19 -2 -26 -11 -7 -8 -20 -15 -29 -15 -11 -1 -8 -5 9 -15 31
-17 44 -19 34 -3 -5 7 -3 8 5 3 17 -10 73 45 66 64 -3 9 -3 12 1 8 9 -9 34 47
34 74 0 30 -20 22 -26 -10z"/>
        <path d="M3990 4180 c0 -100 4 -160 10 -160 6 0 10 60 10 160 0 100 -4 160
-10 160 -6 0 -10 -60 -10 -160z"/>
        <path d="M3440 4289 c-16 -30 -76 -89 -91 -89 -8 0 -8 -5 1 -15 18 -22 33 -19
69 16 38 36 55 74 42 96 -7 14 -10 13 -21 -8z"/>
        <path d="M3550 4190 c8 -5 20 -10 25 -10 6 0 3 5 -5 10 -8 5 -19 10 -25 10 -5
0 -3 -5 5 -10z"/>
        <path d="M4278 4188 c5 -5 16 -8 23 -6 8 3 3 7 -10 11 -17 4 -21 3 -13 -5z"/>
        <path d="M3821 4015 c-1 -18 6 -20 79 -22 48 -2 80 1 80 7 0 6 -32 10 -74 10
-50 0 -76 4 -79 13 -3 6 -6 3 -6 -8z"/>
        <path d="M2200 4000 c0 -5 5 -10 10 -10 6 0 10 5 10 10 0 6 -4 10 -10 10 -5 0
-10 -4 -10 -10z"/>
        <path d="M2230 4000 c0 -6 27 -10 60 -10 33 0 60 4 60 10 0 6 -27 10 -60 10
-33 0 -60 -4 -60 -10z"/>
        <path d="M3990 4000 c0 -5 5 -10 10 -10 6 0 10 5 10 10 0 6 -4 10 -10 10 -5 0
-10 -4 -10 -10z"/>
        <path d="M4020 4000 c0 -6 31 -10 74 -10 41 0 78 5 81 10 4 6 -23 10 -74 10
-47 0 -81 -4 -81 -10z"/>
        <path d="M3819 3978 c0 -2 -2 -10 -4 -19 -7 -36 -17 -59 -26 -59 -5 0 -9 -14
-9 -31 0 -27 2 -30 15 -19 8 7 15 24 15 39 0 15 5 32 12 39 15 15 21 52 8 52
-6 0 -10 -1 -11 -2z"/>
        <path d="M3990 3820 c0 -96 4 -160 10 -160 5 0 9 64 9 160 1 98 -3 160 -9 160
-6 0 -10 -62 -10 -160z"/>
        <path d="M2723 3892 c-1 -22 0 -24 9 -8 6 10 6 22 2 26 -5 5 -10 -3 -11 -18z"/>
        <path d="M3731 3850 c-13 -11 -31 -20 -40 -20 -10 -1 -7 -6 11 -15 36 -20 58
-10 58 26 0 34 1 34 -29 9z"/>
        <path d="M4476 3838 c-10 -38 -7 -42 14 -23 23 21 26 45 6 45 -7 0 -16 -10
-20 -22z"/>
        <path d="M3553 3823 c9 -9 20 -13 24 -9 4 4 1 11 -7 16 -25 16 -35 11 -17 -7z"/>
        <path d="M4275 3826 c11 -8 24 -12 29 -8 5 3 1 9 -10 13 -31 12 -39 10 -19 -5z"/>
        <path d="M4425 3830 c-19 -7 -19 -8 -2 -15 19 -8 31 -2 26 13 -2 5 -13 6 -24
2z"/>
        <path d="M3822 3618 c3 -15 1 -25 -4 -22 -4 3 -8 -3 -8 -13 0 -27 -56 -90 -98
-112 l-36 -19 32 -7 c24 -5 39 -2 61 14 35 25 71 95 71 139 l0 32 172 0 c94 0
169 2 167 5 -3 2 -85 6 -183 7 l-178 3 4 -27z m-51 -131 c-10 -9 -11 -8 -5 6
3 10 9 15 12 12 3 -3 0 -11 -7 -18z"/>
        <path d="M3990 3450 l0 -170 -79 0 c-67 0 -80 3 -84 18 -3 9 -5 -3 -6 -28 0
-25 -8 -56 -17 -68 -14 -21 -12 -62 5 -62 11 0 31 63 31 98 l0 31 166 0 c92 0
169 3 172 6 3 3 -34 5 -81 5 l-87 0 0 170 c0 107 -4 170 -10 170 -6 0 -10 -63
-10 -170z m-163 -252 c-3 -8 -6 -5 -6 6 -1 11 2 17 5 13 3 -3 4 -12 1 -19z"/>
        <path d="M3552 3464 c10 -10 20 -15 24 -12 3 4 -5 12 -18 18 -22 12 -22 12 -6
-6z"/>
        <path d="M4272 3465 c9 -10 21 -16 28 -13 7 2 -1 10 -16 17 -27 12 -28 11 -12
-4z"/>
        <path d="M3990 3090 c0 -100 4 -160 10 -160 6 0 10 60 10 160 0 100 -4 160
-10 160 -6 0 -10 -60 -10 -160z"/>
        <path d="M3750 3134 c-14 -14 -36 -27 -49 -31 l-24 -6 27 -14 c18 -9 32 -11
44 -4 30 16 53 47 46 65 -8 21 -14 20 -44 -10z"/>
        <path d="M3550 3100 c8 -5 22 -9 30 -9 10 0 8 3 -5 9 -27 12 -43 12 -25 0z"/>
        <path d="M4278 3098 c6 -6 18 -8 28 -6 14 3 12 5 -9 10 -19 3 -25 2 -19 -4z"/>
        <path d="M3817 2898 c-3 -24 -13 -57 -21 -72 -8 -16 -12 -34 -10 -41 3 -7 1
-16 -5 -20 -7 -3 -8 0 -5 9 3 9 1 16 -5 16 -6 0 -11 -4 -11 -8 0 -5 -16 -17
-35 -28 -33 -18 -46 -34 -26 -34 5 0 16 -2 23 -5 39 -15 129 113 115 165 -5
20 -1 20 171 20 96 0 173 3 169 6 -3 4 -81 6 -172 6 -135 1 -167 3 -174 15 -5
11 -10 1 -14 -29z"/>
        <path d="M3990 2725 c0 -103 4 -165 10 -165 6 0 10 62 10 165 0 103 -4 165
-10 165 -6 0 -10 -62 -10 -165z"/>
        <path d="M3552 2734 c10 -10 20 -15 24 -12 3 4 -5 12 -18 18 -22 12 -22 12 -6
-6z"/>
        <path d="M3446 2481 c-4 -6 -4 -11 -1 -11 18 0 -94 -92 -120 -99 -30 -8 -30
-8 13 -15 40 -7 47 -5 74 20 41 39 61 80 50 101 -6 11 -11 12 -16 4z"/>
        <path d="M3536 2380 c12 -13 27 -21 33 -19 6 2 -4 12 -22 22 l-32 18 21 -21z"/>
        <path d="M3182 2374 c8 -9 23 -14 33 -12 12 2 7 7 -16 15 -30 12 -32 11 -17
-3z"/>
        <path d="M2930 2183 c0 -9 149 -7 158 1 3 3 -31 6 -76 6 -45 0 -82 -3 -82 -7z"/>
        <path d="M3170 2014 c0 -2 18 -13 40 -24 29 -15 40 -17 40 -7 0 7 -18 18 -40
24 -22 5 -40 9 -40 7z"/>
        <path d="M3990 5650 c0 -99 4 -150 11 -150 7 0 10 50 8 150 -1 83 -6 150 -10
150 -5 0 -9 -67 -9 -150z"/>
        <path d="M1732 4555 c9 -10 21 -16 28 -13 7 2 -1 10 -16 17 -27 12 -28 11 -12
-4z"/>
        <path d="M1722 4194 c8 -9 23 -14 33 -12 12 2 7 7 -16 15 -30 12 -32 11 -17
-3z"/>
        <path d="M1996 3955 c-4 -14 -4 -30 -1 -35 3 -6 -1 -7 -9 -4 -10 4 -17 -2 -22
-20 -3 -14 -10 -24 -14 -21 -4 3 -14 -3 -21 -12 -8 -9 -27 -21 -43 -28 l-28
-12 31 -11 c27 -10 34 -8 61 15 36 30 56 65 65 116 8 42 -9 52 -19 12z"/>
        <path d="M1732 3824 c10 -10 20 -15 24 -12 3 4 -5 12 -18 18 -22 12 -22 12 -6
-6z"/>
        <path d="M1732 3465 c9 -10 21 -16 28 -13 7 2 -1 10 -16 17 -27 12 -28 11 -12
-4z"/>
        <path d="M6452 5284 c10 -10 20 -15 24 -12 3 4 -5 12 -18 18 -22 12 -22 12 -6
-6z"/>
        <path d="M6820 4921 c0 -9 30 -24 36 -18 2 1 -6 8 -16 15 -11 7 -20 8 -20 3z"/>
        <path d="M6826 4555 c10 -8 24 -14 29 -14 6 0 1 6 -9 14 -11 8 -24 15 -30 15
-5 0 -1 -7 10 -15z"/>
        <path d="M6814 4196 c11 -9 27 -16 35 -15 14 0 14 1 1 6 -8 3 -24 10 -35 15
-20 9 -20 9 -1 -6z"/>
        <path d="M6800 3846 c0 -2 11 -11 25 -20 14 -9 25 -13 25 -8 0 5 -11 14 -25
20 -14 6 -25 10 -25 8z"/>
        <path d="M6828 3458 c5 -5 16 -8 23 -6 8 3 3 7 -10 11 -17 4 -21 3 -13 -5z"/>
        <path d="M6800 3115 c0 -9 50 -34 54 -27 3 5 -8 13 -25 19 -16 6 -29 10 -29 8z"/>
        <path d="M5780 4000 c0 -5 5 -10 10 -10 6 0 10 5 10 10 0 6 -4 10 -10 10 -5 0
-10 -4 -10 -10z"/>
        <path d="M3990 1790 c0 -5 5 -10 10 -10 6 0 10 5 10 10 0 6 -4 10 -10 10 -5 0
-10 -4 -10 -10z"/>
        <path d="M3990 1620 c0 -93 4 -150 10 -150 6 0 10 57 10 150 0 93 -4 150 -10
150 -6 0 -10 -57 -10 -150z"/>
    </g>
</svg>
